 0
SECTION
 2
ENTITIES
  0
POLYLINE
 8
Layer0
 66
     1
70
    8
 10
0.0
 20
 0.0
 30
0.0
  0
VERTEX
  8
MY3DLAYER
10
1410.89272853275
20
974.880252282336
30
8.50573975317912e-31
 70
     32
  0
VERTEX
  8
MY3DLAYER
10
1384.68224015559
20
959.203714231967
30
-2.83088152941493e-30
 70
     32
  0
VERTEX
  8
MY3DLAYER
10
1384.68224015559
20
840.796285768032
30
1.63502634483454e-15
 70
     32
  0
VERTEX
  8
MY3DLAYER
10
1410.89272853275
20
825.119747717664
30
4.13592919896127e-15
 70
     32
  0
VERTEX
  8
MY3DLAYER
10
1461.61449624369
20
781.961012453708
30
6.51975494644135e-15
 70
     32
  0
VERTEX
  8
MY3DLAYER
10
1504.50808985276
20
731.014827350139
30
9.3337120061886e-15
 70
     32
  0
VERTEX
  8
MY3DLAYER
10
1538.39440074283
20
673.681659954921
30
1.2500447078137e-14
 70
     32
  0
VERTEX
  8
MY3DLAYER
10
1550.0
20
643.56498960982
30
1.82175942068839e-14
 70
     32
  0
VERTEX
  8
MY3DLAYER
10
1562.3419228821
20
611.537550558326
30
1.59329092929772e-14
 70
     32
  0
VERTEX
  8
MY3DLAYER
10
1575.69235913719
20
546.29078817807
30
1.9536743166943e-14
 70
     32
  0
VERTEX
  8
MY3DLAYER
10
1578.07871730469
20
479.73495113876
30
2.32128823542722e-14
 70
     32
  0
VERTEX
  8
MY3DLAYER
10
1569.4353984165
20
413.699603120416
30
2.68602728972802e-14
 70
     32
  0
VERTEX
  8
MY3DLAYER
10
1550.0
20
350.0
30
3.03786511142045e-14
 70
     32
  0
VERTEX
  8
MY3DLAYER
10
1524.14337615468
20
326.067135975204
30
2.58166565020654e-14
 70
     32
  0
VERTEX
  8
MY3DLAYER
10
1496.23731180687
20
304.55903169509
30
2.20325090086128e-14
 70
     32
  0
VERTEX
  8
MY3DLAYER
10
1466.5084025971
20
285.650331731708
30
1.90569356942588e-14
 70
     32
  0
VERTEX
  8
MY3DLAYER
10
1435.19804556151
20
269.494573643276
30
1.69140980434984e-14
 70
     32
  0
VERTEX
  8
MY3DLAYER
10
1402.56047900181
20
256.222941258025
30
1.56213957750428e-14
 70
     32
  0
VERTEX
  8
MY3DLAYER
10
1368.86071808486
20
245.943199469044
30
1.51893255571023e-14
 70
     32
  0
VERTEX
  8
MY3DLAYER
10
1334.37240293471
20
238.738819189536
30
1.56213957750428e-14
 70
     32
  0
VERTEX
  8
MY3DLAYER
10
1299.37557669052
20
234.668299573791
30
1.69140980434984e-14
 70
     32
  0
VERTEX
  8
MY3DLAYER
10
1264.15441157235
20
233.764693007414
30
1.90569356942588e-14
 70
     32
  0
VERTEX
  8
MY3DLAYER
10
1228.99490141904
20
236.035336723851
30
2.20325090086128e-14
 70
     32
  0
VERTEX
  8
MY3DLAYER
10
1194.18253943464
20
241.461793226476
30
2.58166565020654e-14
 70
     32
  0
VERTEX
  8
MY3DLAYER
10
1160.0
20
250.0
30
3.03786511142045e-14
 70
     32
  0
VERTEX
  8
MY3DLAYER
10
550.0
20
250.0
30
3.03786511142045e-14
 70
     32
  0
VERTEX
  8
MY3DLAYER
10
546.592582628906
20
275.881904510252
30
3.03786511142045e-14
 70
     32
  0
VERTEX
  8
MY3DLAYER
10
536.602540378444
20
300.0
30
3.03786511142045e-14
 70
     32
  0
VERTEX
  8
MY3DLAYER
10
520.710678118655
20
320.710678118655
30
3.03786511142045e-14
 70
     32
  0
VERTEX
  8
MY3DLAYER
10
500.0
20
336.602540378444
30
3.03786511142045e-14
 70
     32
  0
VERTEX
  8
MY3DLAYER
10
475.881904510252
20
346.592582628907
30
3.03786511142045e-14
 70
     32
  0
VERTEX
  8
MY3DLAYER
10
450.0
20
350.0
30
3.03786511142045e-14
 70
     32
  0
VERTEX
  8
MY3DLAYER
10
9.02389274415327e-14
20
350.0
30
3.03786511142045e-14
 70
     32
  0
VERTEX
  8
MY3DLAYER
10
2.8199664825479e-15
20
1450.0
30
5.00926674815342e-30
 70
     32
  0
VERTEX
  8
MY3DLAYER
10
450.0
20
1450.0
30
5.00926674815342e-30
 70
     32
  0
VERTEX
  8
MY3DLAYER
10
475.881904510252
20
1453.40741737109
30
5.00926674815342e-30
 70
     32
  0
VERTEX
  8
MY3DLAYER
10
500.0
20
1463.39745962156
30
5.00926674815342e-30
 70
     32
  0
VERTEX
  8
MY3DLAYER
10
520.710678118655
20
1479.28932188135
30
5.00926674815342e-30
 70
     32
  0
VERTEX
  8
MY3DLAYER
10
536.602540378444
20
1500.0
30
5.00926674815342e-30
 70
     32
  0
VERTEX
  8
MY3DLAYER
10
546.592582628907
20
1524.11809548975
30
5.00926674815342e-30
 70
     32
  0
VERTEX
  8
MY3DLAYER
10
550.0
20
1550.0
30
5.00926674815342e-30
 70
     32
  0
VERTEX
  8
MY3DLAYER
10
1160.0
20
1550.0
30
5.00926674815342e-30
 70
     32
  0
VERTEX
  8
MY3DLAYER
10
1194.18253943464
20
1558.53820677353
30
1.93746693672267e-30
 70
     32
  0
VERTEX
  8
MY3DLAYER
10
1228.99490141904
20
1563.96466327615
30
-5.92713415138427e-31
 70
     32
  0
VERTEX
  8
MY3DLAYER
10
1264.15441157235
20
1566.23530699259
30
-2.56072938822177e-30
 70
     32
  0
VERTEX
  8
MY3DLAYER
10
1299.37557669052
20
1565.33170042621
30
-3.95060080580296e-30
 70
     32
  0
VERTEX
  8
MY3DLAYER
10
1334.37240293471
20
1561.26118081047
30
-4.75104199175901e-30
 70
     32
  0
VERTEX
  8
MY3DLAYER
10
1368.86071808486
20
1554.05680053096
30
-4.95555340961054e-30
 70
     32
  0
VERTEX
  8
MY3DLAYER
10
1402.56047900181
20
1543.77705874198
30
-4.56247443838489e-30
 70
     32
  0
VERTEX
  8
MY3DLAYER
10
1435.19804556151
20
1530.50542635673
30
-3.57499685676309e-30
 70
     32
  0
VERTEX
  8
MY3DLAYER
10
1466.5084025971
20
1514.34966826829
30
-2.00113892602023e-30
 70
     32
  0
VERTEX
  8
MY3DLAYER
10
1496.23731180687
20
1495.44096830491
30
1.46319717795871e-31
 70
     32
  0
VERTEX
  8
MY3DLAYER
10
1524.14337615468
20
1473.9328640248
30
2.84994183377567e-30
 70
     32
  0
VERTEX
  8
MY3DLAYER
10
1550.0
20
1450.0
30
6.08777416554311e-30
 70
     32
  0
VERTEX
  8
MY3DLAYER
10
1569.4353984165
20
1386.30039687958
30
5.38980710134519e-30
 70
     32
  0
VERTEX
  8
MY3DLAYER
10
1578.07871730469
20
1320.26504886124
30
4.66498190505241e-30
 70
     32
  0
VERTEX
  8
MY3DLAYER
10
1575.69235913719
20
1253.70921182193
30
3.93322340839243e-30
 70
     32
  0
VERTEX
  8
MY3DLAYER
10
1562.3419228821
20
1188.46244944167
30
3.21464703365709e-30
 70
     32
  0
VERTEX
  8
MY3DLAYER
10
1550.0
20
1156.43501039018
30
3.31585793346958e-15
 70
     32
  0
VERTEX
  8
MY3DLAYER
10
1538.39440074283
20
1126.31834004508
30
2.5290058377535e-30
 70
     32
  0
VERTEX
  8
MY3DLAYER
10
1504.50808985276
20
1068.98517264986
30
1.89514751737291e-30
 70
     32
  0
VERTEX
  8
MY3DLAYER
10
1461.61449624369
20
1018.03898754629
30
1.3304963017465e-30
 70
     32
  0
VERTEX
  8
MY3DLAYER
10
1410.89272853275
20
974.880252282336
30
8.50573975317912e-31
 70
     32
  0
SEQEND
  0
POLYLINE
 8
Layer0
 66
     1
70
    8
 10
0.0
 20
 0.0
 30
0.0
  0
VERTEX
  8
MY3DLAYER
10
325.748410767609
20
1205.42050217948
30
-4.19662891298309e-15
 70
     32
  0
VERTEX
  8
MY3DLAYER
10
275.0
20
1250.0
30
1.00185334963068e-29
 70
     32
  0
VERTEX
  8
MY3DLAYER
10
224.25158923239
20
1205.42050217948
30
-4.94020434138038e-15
 70
     32
  0
VERTEX
  8
MY3DLAYER
10
180.970378752392
20
1153.56040537323
30
-7.95223233657661e-15
 70
     32
  0
VERTEX
  8
MY3DLAYER
10
146.188103937537
20
1095.65594803123
30
-8.96428340962748e-15
 70
     32
  0
VERTEX
  8
MY3DLAYER
10
120.73390295285
20
1033.08745377415
30
-7.95223233657662e-15
 70
     32
  0
VERTEX
  8
MY3DLAYER
10
105.214551795849
20
967.346427306398
30
-4.94020434138042e-15
 70
     32
  0
VERTEX
  8
MY3DLAYER
10
100.0
20
900.0
30
-1.00185334963068e-29
 70
     32
  0
VERTEX
  8
MY3DLAYER
10
105.214551795849
20
832.653572693602
30
6.75061633821509e-15
 70
     32
  0
VERTEX
  8
MY3DLAYER
10
120.73390295285
20
766.912546225853
30
1.51507238113242e-14
 70
     32
  0
VERTEX
  8
MY3DLAYER
10
146.188103937537
20
704.344051968768
30
2.5000081068428e-14
 70
     32
  0
VERTEX
  8
MY3DLAYER
10
180.970378752392
20
646.439594626769
30
3.60638996131929e-14
 70
     32
  0
VERTEX
  8
MY3DLAYER
10
224.25158923239
20
594.579497820518
30
4.80784406805374e-14
 70
     32
  0
VERTEX
  8
MY3DLAYER
10
275.0
20
550.0
30
6.0757302228409e-14
 70
     32
  0
VERTEX
  8
MY3DLAYER
10
325.748410767609
20
594.579497820518
30
4.88220161089348e-14
 70
     32
  0
VERTEX
  8
MY3DLAYER
10
369.029621247608
20
646.439594626769
30
3.74416396220653e-14
 70
     32
  0
VERTEX
  8
MY3DLAYER
10
403.811896062463
20
704.344051968768
30
2.68874576256157e-14
 70
     32
  0
VERTEX
  8
MY3DLAYER
10
429.26609704715
20
766.912546225853
30
1.74110601935668e-14
 70
     32
  0
VERTEX
  8
MY3DLAYER
10
444.785448204151
20
832.653572693602
30
9.23834522419259e-15
 70
     32
  0
VERTEX
  8
MY3DLAYER
10
450.0
20
900.0
30
2.56413349701555e-15
 70
     32
  0
VERTEX
  8
MY3DLAYER
10
444.785448204151
20
967.346427306398
30
-2.45247545540291e-15
 70
     32
  0
VERTEX
  8
MY3DLAYER
10
429.26609704715
20
1033.08745377415
30
-5.69189595433406e-15
 70
     32
  0
VERTEX
  8
MY3DLAYER
10
403.811896062463
20
1095.65594803123
30
-7.07690685243981e-15
 70
     32
  0
VERTEX
  8
MY3DLAYER
10
369.029621247608
20
1153.56040537323
30
-6.57449232770419e-15
 70
     32
  0
VERTEX
  8
MY3DLAYER
10
325.748410767609
20
1205.42050217948
30
-4.19662891298309e-15
 70
     32
  0
SEQEND
  0
POLYLINE
 8
Layer0
 66
     1
70
    8
 10
0.0
 20
 0.0
 30
0.0
  0
VERTEX
  8
MY3DLAYER
10
1384.12208706974
20
281.559542887664
30
0.0
 70
     32
  0
VERTEX
  8
MY3DLAYER
10
1400.0
20
281.522008019462
30
0.0
 70
     32
  0
VERTEX
  8
MY3DLAYER
10
1415.31775984441
20
281.485797334881
30
0.0
 70
     32
  0
VERTEX
  8
MY3DLAYER
10
1445.46955259949
20
289.488598839746
30
0.0
 70
     32
  0
VERTEX
  8
MY3DLAYER
10
1472.52267048689
20
305.022569704956
30
0.0
 70
     32
  0
VERTEX
  8
MY3DLAYER
10
1494.63348822999
20
327.02909548715
30
0.0
 70
     32
  0
VERTEX
  8
MY3DLAYER
10
1510.29519013946
20
354.008467821772
30
0.0
 70
     32
  0
VERTEX
  8
MY3DLAYER
10
1518.44045711234
20
384.12208706974
30
0.0
 70
     32
  0
VERTEX
  8
MY3DLAYER
10
1518.51420266512
20
415.317759844414
30
0.0
 70
     32
  0
VERTEX
  8
MY3DLAYER
10
1510.51140116025
20
445.469552599485
30
0.0
 70
     32
  0
VERTEX
  8
MY3DLAYER
10
1494.97743029504
20
472.522670486891
30
0.0
 70
     32
  0
VERTEX
  8
MY3DLAYER
10
1472.97090451285
20
494.633488229994
30
0.0
 70
     32
  0
VERTEX
  8
MY3DLAYER
10
1445.99153217823
20
510.295190139457
30
0.0
 70
     32
  0
VERTEX
  8
MY3DLAYER
10
1415.87791293026
20
518.440457112336
30
0.0
 70
     32
  0
VERTEX
  8
MY3DLAYER
10
1400.0
20
518.477991980538
30
0.0
 70
     32
  0
VERTEX
  8
MY3DLAYER
10
1384.68224015559
20
518.514202665119
30
0.0
 70
     32
  0
VERTEX
  8
MY3DLAYER
10
1354.53044740051
20
510.511401160254
30
0.0
 70
     32
  0
VERTEX
  8
MY3DLAYER
10
1327.47732951311
20
494.977430295043
30
0.0
 70
     32
  0
VERTEX
  8
MY3DLAYER
10
1305.36651177001
20
472.970904512851
30
0.0
 70
     32
  0
VERTEX
  8
MY3DLAYER
10
1289.70480986054
20
445.991532178228
30
0.0
 70
     32
  0
VERTEX
  8
MY3DLAYER
10
1281.55954288766
20
415.87791293026
30
0.0
 70
     32
  0
VERTEX
  8
MY3DLAYER
10
1281.48579733488
20
384.682240155586
30
0.0
 70
     32
  0
VERTEX
  8
MY3DLAYER
10
1289.48859883975
20
354.530447400515
30
0.0
 70
     32
  0
VERTEX
  8
MY3DLAYER
10
1305.02256970496
20
327.477329513109
30
0.0
 70
     32
  0
VERTEX
  8
MY3DLAYER
10
1327.02909548715
20
305.366511770006
30
0.0
 70
     32
  0
VERTEX
  8
MY3DLAYER
10
1354.00846782177
20
289.704809860543
30
0.0
 70
     32
  0
VERTEX
  8
MY3DLAYER
10
1384.12208706974
20
281.559542887664
30
0.0
 70
     32
  0
SEQEND
  0
POLYLINE
 8
Layer0
 66
     1
70
    8
 10
0.0
 20
 0.0
 30
0.0
  0
VERTEX
  8
MY3DLAYER
10
1421.17265293092
20
1517.60939064491
30
0.0
 70
     32
  0
VERTEX
  8
MY3DLAYER
10
1400.0
20
1518.60985705858
30
0.0
 70
     32
  0
VERTEX
  8
MY3DLAYER
10
1390.01166209522
20
1519.08183365191
30
0.0
 70
     32
  0
VERTEX
  8
MY3DLAYER
10
1359.53135998123
20
1512.43904648756
30
0.0
 70
     32
  0
VERTEX
  8
MY3DLAYER
10
1331.80892880693
20
1498.13372411939
30
0.0
 70
     32
  0
VERTEX
  8
MY3DLAYER
10
1308.73360644336
20
1477.14075062614
30
0.0
 70
     32
  0
VERTEX
  8
MY3DLAYER
10
1291.87793797583
20
1450.89076245883
30
0.0
 70
     32
  0
VERTEX
  8
MY3DLAYER
10
1282.39060935509
20
1421.17265293092
30
0.0
 70
     32
  0
VERTEX
  8
MY3DLAYER
10
1280.91816634809
20
1390.01166209522
30
0.0
 70
     32
  0
VERTEX
  8
MY3DLAYER
10
1287.56095351244
20
1359.53135998123
30
0.0
 70
     32
  0
VERTEX
  8
MY3DLAYER
10
1301.86627588061
20
1331.80892880693
30
0.0
 70
     32
  0
VERTEX
  8
MY3DLAYER
10
1322.85924937386
20
1308.73360644336
30
0.0
 70
     32
  0
VERTEX
  8
MY3DLAYER
10
1349.10923754117
20
1291.87793797583
30
0.0
 70
     32
  0
VERTEX
  8
MY3DLAYER
10
1378.82734706908
20
1282.39060935509
30
0.0
 70
     32
  0
VERTEX
  8
MY3DLAYER
10
1400.0
20
1281.39014294142
30
0.0
 70
     32
  0
VERTEX
  8
MY3DLAYER
10
1409.98833790478
20
1280.91816634809
30
0.0
 70
     32
  0
VERTEX
  8
MY3DLAYER
10
1440.46864001877
20
1287.56095351244
30
0.0
 70
     32
  0
VERTEX
  8
MY3DLAYER
10
1468.19107119307
20
1301.86627588061
30
0.0
 70
     32
  0
VERTEX
  8
MY3DLAYER
10
1491.26639355664
20
1322.85924937386
30
0.0
 70
     32
  0
VERTEX
  8
MY3DLAYER
10
1508.12206202417
20
1349.10923754117
30
0.0
 70
     32
  0
VERTEX
  8
MY3DLAYER
10
1517.60939064491
20
1378.82734706908
30
0.0
 70
     32
  0
VERTEX
  8
MY3DLAYER
10
1519.08183365191
20
1409.98833790478
30
0.0
 70
     32
  0
VERTEX
  8
MY3DLAYER
10
1512.43904648756
20
1440.46864001877
30
0.0
 70
     32
  0
VERTEX
  8
MY3DLAYER
10
1498.13372411939
20
1468.19107119307
30
0.0
 70
     32
  0
VERTEX
  8
MY3DLAYER
10
1477.14075062614
20
1491.26639355664
30
0.0
 70
     32
  0
VERTEX
  8
MY3DLAYER
10
1450.89076245883
20
1508.12206202417
30
0.0
 70
     32
  0
VERTEX
  8
MY3DLAYER
10
1421.17265293092
20
1517.60939064491
30
0.0
 70
     32
  0
SEQEND
  0
POLYLINE
 8
Layer0
 66
     1
70
    8
 10
0.0
 20
 0.0
 30
0.0
  0
VERTEX
  8
MY3DLAYER
10
1153.86664873203
20
853.412571881546
30
0.0
 70
     32
  0
VERTEX
  8
MY3DLAYER
10
1160.0
20
900.0
30
0.0
 70
     32
  0
VERTEX
  8
MY3DLAYER
10
1153.86664873203
20
946.587428118454
30
0.0
 70
     32
  0
VERTEX
  8
MY3DLAYER
10
1135.8845726812
20
990.0
30
0.0
 70
     32
  0
VERTEX
  8
MY3DLAYER
10
1107.27922061358
20
1027.27922061358
30
0.0
 70
     32
  0
VERTEX
  8
MY3DLAYER
10
1070.0
20
1055.8845726812
30
0.0
 70
     32
  0
VERTEX
  8
MY3DLAYER
10
1026.58742811845
20
1073.86664873203
30
0.0
 70
     32
  0
VERTEX
  8
MY3DLAYER
10
980.0
20
1080.0
30
0.0
 70
     32
  0
VERTEX
  8
MY3DLAYER
10
933.412571881546
20
1073.86664873203
30
0.0
 70
     32
  0
VERTEX
  8
MY3DLAYER
10
890.0
20
1055.8845726812
30
0.0
 70
     32
  0
VERTEX
  8
MY3DLAYER
10
852.720779386421
20
1027.27922061358
30
0.0
 70
     32
  0
VERTEX
  8
MY3DLAYER
10
824.115427318801
20
990.0
30
0.0
 70
     32
  0
VERTEX
  8
MY3DLAYER
10
806.133351267968
20
946.587428118454
30
0.0
 70
     32
  0
VERTEX
  8
MY3DLAYER
10
800.0
20
900.0
30
0.0
 70
     32
  0
VERTEX
  8
MY3DLAYER
10
806.133351267968
20
853.412571881546
30
0.0
 70
     32
  0
VERTEX
  8
MY3DLAYER
10
824.115427318801
20
810.0
30
0.0
 70
     32
  0
VERTEX
  8
MY3DLAYER
10
852.720779386421
20
772.720779386421
30
0.0
 70
     32
  0
VERTEX
  8
MY3DLAYER
10
890.0
20
744.115427318801
30
0.0
 70
     32
  0
VERTEX
  8
MY3DLAYER
10
933.412571881546
20
726.133351267968
30
0.0
 70
     32
  0
VERTEX
  8
MY3DLAYER
10
980.0
20
720.0
30
0.0
 70
     32
  0
VERTEX
  8
MY3DLAYER
10
1026.58742811845
20
726.133351267968
30
0.0
 70
     32
  0
VERTEX
  8
MY3DLAYER
10
1070.0
20
744.115427318801
30
0.0
 70
     32
  0
VERTEX
  8
MY3DLAYER
10
1107.27922061358
20
772.720779386421
30
0.0
 70
     32
  0
VERTEX
  8
MY3DLAYER
10
1135.8845726812
20
810.0
30
0.0
 70
     32
  0
VERTEX
  8
MY3DLAYER
10
1153.86664873203
20
853.412571881546
30
0.0
 70
     32
  0
SEQEND
 0
ENDSEC
 0
EOF
