solid sucker2000load_part2g
facet normal -0.0 1.0 -0.0
outer loop
vertex -6.79999999999989 110.0 140.0
vertex 9.02389274415327e-15 110.0 6.0
vertex -6.79999999999989 110.0 -0.800000000000008
endloop
endfacet
facet normal -0.0 1.0 -0.0
outer loop
vertex 9.02389274415327e-15 110.0 6.0
vertex -6.79999999999989 110.0 140.0
vertex 1.08286712929839e-13 110.0 140.0
endloop
endfacet
facet normal -0.0 1.0 -0.0
outer loop
vertex 161.8 110.0 -0.800000000000017
vertex 155.0 110.0 6.0
vertex 161.8 110.0 140.0
endloop
endfacet
facet normal -0.0 1.0 -0.0
outer loop
vertex 155.0 110.0 6.0
vertex 161.8 110.0 -0.800000000000017
vertex -6.79999999999989 110.0 -0.800000000000008
endloop
endfacet
facet normal -0.0 1.0 -0.0
outer loop
vertex 155.0 110.0 6.0
vertex -6.79999999999989 110.0 -0.800000000000008
vertex 9.02389274415327e-15 110.0 6.0
endloop
endfacet
facet normal -0.0 1.0 -0.0
outer loop
vertex 161.8 110.0 140.0
vertex 155.0 110.0 6.0
vertex 155.0 110.0 140.0
endloop
endfacet
facet normal 1.0 -0.0 -0.0
outer loop
vertex 155.8 104.0 -0.800000000000017
vertex 155.8 57.6 140.0
vertex 155.8 57.6 -0.799999999999999
endloop
endfacet
facet normal 1.0 -0.0 -0.0
outer loop
vertex 155.8 57.6 140.0
vertex 155.8 104.0 -0.800000000000017
vertex 155.8 104.0 140.0
endloop
endfacet
facet normal 0.0 -0.0 1.0
outer loop
vertex 155.0 52.0 6.0
vertex -9.02389274415327e-15 58.0 6.0
vertex -9.02389274415327e-15 52.0 6.0
endloop
endfacet
facet normal 0.0 -0.0 1.0
outer loop
vertex -9.02389274415327e-15 58.0 6.0
vertex 155.0 52.0 6.0
vertex 155.0 58.0 6.0
endloop
endfacet
facet normal 0.0 -1.0 0.0
outer loop
vertex 155.0 104.0 6.0
vertex 9.02389274415327e-15 104.0 0.0
vertex 155.0 104.0 0.0
endloop
endfacet
facet normal 0.0 -1.0 0.0
outer loop
vertex 9.02389274415327e-15 104.0 0.0
vertex 155.0 104.0 6.0
vertex 9.02389274415327e-15 104.0 6.0
endloop
endfacet
facet normal -0.0 -0.0 1.0
outer loop
vertex 155.0 104.0 6.0
vertex 9.02389274415327e-15 110.0 6.0
vertex 9.02389274415327e-15 104.0 6.0
endloop
endfacet
facet normal -0.0 -0.0 1.0
outer loop
vertex 9.02389274415327e-15 110.0 6.0
vertex 155.0 104.0 6.0
vertex 155.0 110.0 6.0
endloop
endfacet
facet normal -8.67148364867128e-19 -1.0 -3.20823165484331e-35
outer loop
vertex -0.799999999999863 -0.799999999999999 140.0
vertex -6.79999999999991 -0.799999999999999 -0.799999999999999
vertex -0.799999999999863 -0.799999999999999 -0.800000000000008
endloop
endfacet
facet normal -8.67148364867128e-19 -1.0 -3.20823165484331e-35
outer loop
vertex -6.79999999999991 -0.799999999999999 -0.799999999999999
vertex -0.799999999999863 -0.799999999999999 140.0
vertex -6.79999999999991 -0.799999999999999 140.0
endloop
endfacet
facet normal -1.0 0.0 0.0
outer loop
vertex 161.8 5.2 140.0
vertex 161.8 -0.8 -0.800000000000008
vertex 161.8 -0.8 140.0
endloop
endfacet
facet normal -1.0 0.0 0.0
outer loop
vertex 161.8 -0.8 -0.800000000000008
vertex 161.8 5.2 140.0
vertex 161.8 5.2 -0.800000000000008
endloop
endfacet
facet normal 0.0 -1.0 0.0
outer loop
vertex 161.8 5.2 140.0
vertex 155.8 5.2 -0.800000000000008
vertex 161.8 5.2 -0.800000000000008
endloop
endfacet
facet normal 0.0 -1.0 0.0
outer loop
vertex 155.8 5.2 -0.800000000000008
vertex 161.8 5.2 140.0
vertex 155.8 5.2 140.0
endloop
endfacet
facet normal 0.0 -1.0 0.0
outer loop
vertex 161.8 104.0 140.0
vertex 155.8 104.0 -0.800000000000017
vertex 161.8 104.0 -0.800000000000017
endloop
endfacet
facet normal 0.0 -1.0 0.0
outer loop
vertex 155.8 104.0 -0.800000000000017
vertex 161.8 104.0 140.0
vertex 155.8 104.0 140.0
endloop
endfacet
facet normal 1.0 -0.0 0.0
outer loop
vertex 161.8 110.0 -0.800000000000017
vertex 161.8 104.0 140.0
vertex 161.8 104.0 -0.800000000000017
endloop
endfacet
facet normal 1.0 -0.0 0.0
outer loop
vertex 161.8 104.0 140.0
vertex 161.8 110.0 -0.800000000000017
vertex 161.8 110.0 140.0
endloop
endfacet
facet normal -0.0 1.0 -0.0
outer loop
vertex 155.8 57.6 140.0
vertex 161.8 57.6 -0.799999999999999
vertex 155.8 57.6 -0.799999999999999
endloop
endfacet
facet normal -0.0 1.0 -0.0
outer loop
vertex 161.8 57.6 -0.799999999999999
vertex 155.8 57.6 140.0
vertex 161.8 57.6 140.0
endloop
endfacet
facet normal 0.0 -1.0 0.0
outer loop
vertex 161.8 51.6 140.0
vertex 155.8 51.6 -0.799999999999999
vertex 161.8 51.6 -0.799999999999999
endloop
endfacet
facet normal 0.0 -1.0 0.0
outer loop
vertex 155.8 51.6 -0.799999999999999
vertex 161.8 51.6 140.0
vertex 155.8 51.6 140.0
endloop
endfacet
facet normal 1.0 -0.0 0.0
outer loop
vertex 161.8 57.6 -0.799999999999999
vertex 161.8 51.6 140.0
vertex 161.8 51.6 -0.799999999999999
endloop
endfacet
facet normal 1.0 -0.0 0.0
outer loop
vertex 161.8 51.6 140.0
vertex 161.8 57.6 -0.799999999999999
vertex 161.8 57.6 140.0
endloop
endfacet
facet normal 1.0 -0.0 -0.0
outer loop
vertex 155.8 51.6 -0.799999999999999
vertex 155.8 5.2 140.0
vertex 155.8 5.2 -0.800000000000008
endloop
endfacet
facet normal 1.0 -0.0 -0.0
outer loop
vertex 155.8 5.2 140.0
vertex 155.8 51.6 -0.799999999999999
vertex 155.8 51.6 140.0
endloop
endfacet
facet normal -1.0 -0.0 -0.0
outer loop
vertex -6.79999999999989 110.0 140.0
vertex -6.79999999999989 104.0 -0.800000000000008
vertex -6.79999999999989 104.0 140.0
endloop
endfacet
facet normal -1.0 -0.0 -0.0
outer loop
vertex -6.79999999999989 104.0 -0.800000000000008
vertex -6.79999999999989 110.0 140.0
vertex -6.79999999999989 110.0 -0.800000000000008
endloop
endfacet
facet normal 4.31100903834831e-16 -1.0 -1.81620183207794e-17
outer loop
vertex -0.799999999999895 51.6 140.0
vertex -6.7999999999999 51.6 -0.799999999999999
vertex -0.799999999999895 51.6 -0.799999999999999
endloop
endfacet
facet normal 4.31100903834831e-16 -1.0 -1.81620183207794e-17
outer loop
vertex -6.7999999999999 51.6 -0.799999999999999
vertex -0.799999999999895 51.6 140.0
vertex -6.7999999999999 51.6 140.0
endloop
endfacet
facet normal -1.0 -0.0 -0.0
outer loop
vertex -6.7999999999999 57.6 140.0
vertex -6.7999999999999 51.6 -0.799999999999999
vertex -6.7999999999999 51.6 140.0
endloop
endfacet
facet normal -1.0 -0.0 -0.0
outer loop
vertex -6.7999999999999 51.6 -0.799999999999999
vertex -6.7999999999999 57.6 140.0
vertex -6.7999999999999 57.6 -0.799999999999999
endloop
endfacet
facet normal -0.0 1.0 -0.0
outer loop
vertex -6.79999999999991 5.2 140.0
vertex -0.79999999999989 5.2 -0.799999999999999
vertex -6.79999999999991 5.2 -0.799999999999999
endloop
endfacet
facet normal -0.0 1.0 -0.0
outer loop
vertex -0.79999999999989 5.2 -0.799999999999999
vertex -6.79999999999991 5.2 140.0
vertex -0.79999999999989 5.2 140.0
endloop
endfacet
facet normal -1.0 -0.0 -0.0
outer loop
vertex -6.79999999999991 5.2 140.0
vertex -6.79999999999991 -0.799999999999999 -0.799999999999999
vertex -6.79999999999991 -0.799999999999999 140.0
endloop
endfacet
facet normal -1.0 -0.0 -0.0
outer loop
vertex -6.79999999999991 -0.799999999999999 -0.799999999999999
vertex -6.79999999999991 5.2 140.0
vertex -6.79999999999991 5.2 -0.799999999999999
endloop
endfacet
facet normal -1.0 -1.21550279420169e-17 1.59802449510801e-16
outer loop
vertex -0.799999999999895 51.6 140.0
vertex -0.79999999999989 5.2 -0.799999999999999
vertex -0.79999999999989 5.2 140.0
endloop
endfacet
facet normal -1.0 -1.21550279420169e-17 1.59802449510801e-16
outer loop
vertex -0.79999999999989 5.2 -0.799999999999999
vertex -0.799999999999895 51.6 140.0
vertex -0.799999999999895 51.6 -0.799999999999999
endloop
endfacet
facet normal 1.0 -0.0 -0.0
outer loop
vertex -0.799999999999863 -0.799999999999999 140.0
vertex -0.799999999999863 -49.5563714646378 140.0
vertex -0.799999999999863 -0.799999999999999 -0.800000000000008
endloop
endfacet
facet normal 1.0 1.11538928547647e-16 -6.54403761263915e-16
outer loop
vertex -9.02389274415327e-15 52.0 0.0
vertex 9.02389274415327e-15 6.0 6.0
vertex 9.02389274415327e-15 6.0 0.0
endloop
endfacet
facet normal 1.0 1.11538928547647e-16 -6.54403761263915e-16
outer loop
vertex 9.02389274415327e-15 104.0 0.0
vertex -9.02389274415327e-15 58.0 6.0
vertex -9.02389274415327e-15 58.0 0.0
endloop
endfacet
facet normal 1.0 1.11538928547647e-16 -6.54403761263915e-16
outer loop
vertex 9.62852506181648e-14 -2.35471112187167 6.00000000000001
vertex 1.08286712929839e-13 110.0 140.0
vertex 9.02389274415327e-14 -48.7563714646378 140.0
endloop
endfacet
facet normal 1.0 1.11538928547647e-16 -6.54403761263915e-16
outer loop
vertex 1.08286712929839e-13 110.0 140.0
vertex 9.62852506181648e-14 -2.35471112187167 6.00000000000001
vertex 9.02389274415327e-15 6.0 6.0
endloop
endfacet
facet normal 1.0 1.11538928547647e-16 -6.54403761263915e-16
outer loop
vertex 1.08286712929839e-13 110.0 140.0
vertex 9.02389274415327e-15 6.0 6.0
vertex -9.02389274415327e-15 52.0 6.0
endloop
endfacet
facet normal 1.0 1.11538928547647e-16 -6.54403761263915e-16
outer loop
vertex -9.02389274415327e-15 52.0 6.0
vertex 9.02389274415327e-15 6.0 6.0
vertex -9.02389274415327e-15 52.0 0.0
endloop
endfacet
facet normal 1.0 1.11538928547647e-16 -6.54403761263915e-16
outer loop
vertex 1.08286712929839e-13 110.0 140.0
vertex -9.02389274415327e-15 52.0 6.0
vertex -9.02389274415327e-15 58.0 6.0
endloop
endfacet
facet normal 1.0 1.11538928547647e-16 -6.54403761263915e-16
outer loop
vertex 1.08286712929839e-13 110.0 140.0
vertex -9.02389274415327e-15 58.0 6.0
vertex 9.02389274415327e-15 104.0 6.0
endloop
endfacet
facet normal 1.0 1.11538928547647e-16 -6.54403761263915e-16
outer loop
vertex 9.02389274415327e-15 104.0 6.0
vertex -9.02389274415327e-15 58.0 6.0
vertex 9.02389274415327e-15 104.0 0.0
endloop
endfacet
facet normal 1.0 1.11538928547647e-16 -6.54403761263915e-16
outer loop
vertex 1.08286712929839e-13 110.0 140.0
vertex 9.02389274415327e-15 104.0 6.0
vertex 9.02389274415327e-15 110.0 6.0
endloop
endfacet
facet normal -1.25400747089064e-15 0.94494891215753 0.327217898979105
outer loop
vertex 9.02389274415327e-14 -48.7563714646378 140.0
vertex 74.5 -2.35471112187167 6.00000000000057
vertex 9.62852506181648e-14 -2.35471112187167 6.00000000000001
endloop
endfacet
facet normal -1.25400747089064e-15 0.94494891215753 0.327217898979105
outer loop
vertex 74.5 -2.35471112187167 6.00000000000057
vertex 9.02389274415327e-14 -48.7563714646378 140.0
vertex 74.5 -48.7563714646378 140.0
endloop
endfacet
facet normal 1.0 4.32038528323527e-15 1.49606754076546e-15
outer loop
vertex 80.5000000000001 -2.35471112187084 5.99999999999978
vertex 80.5 -40.4016603427669 140.0
vertex 80.5000000000001 -48.7563714646378 140.0
endloop
endfacet
facet normal 1.0 4.32038528323527e-15 1.49606754076546e-15
outer loop
vertex 80.5 -40.4016603427669 140.0
vertex 80.5000000000001 -2.35471112187084 5.99999999999978
vertex 80.5 6.0 6.0
endloop
endfacet
facet normal -1.0 -3.78033712283071e-15 -1.27538785658706e-15
outer loop
vertex 74.5 -40.4016603427669 140.0
vertex 74.5 -2.35471112187167 6.00000000000057
vertex 74.5 -48.7563714646378 140.0
endloop
endfacet
facet normal -1.0 -3.78033712283071e-15 -1.27538785658706e-15
outer loop
vertex 74.5 -2.35471112187167 6.00000000000057
vertex 74.5 -40.4016603427669 140.0
vertex 74.5 6.0 6.0
endloop
endfacet
facet normal -4.77422691685857e-15 0.944948912157528 0.327217898979112
outer loop
vertex 80.5000000000001 -48.7563714646378 140.0
vertex 155.0 -2.35471112187017 6.0
vertex 80.5000000000001 -2.35471112187084 5.99999999999978
endloop
endfacet
facet normal -4.77422691685857e-15 0.944948912157528 0.327217898979112
outer loop
vertex 155.0 -2.35471112187017 6.0
vertex 80.5000000000001 -48.7563714646378 140.0
vertex 155.0 -48.7563714646378 140.0
endloop
endfacet
facet normal -1.75855369105302e-16 8.18098520274049e-16 1.0
outer loop
vertex -0.799999999999895 51.6 140.0
vertex -6.7999999999999 57.6 140.0
vertex -6.7999999999999 51.6 140.0
endloop
endfacet
facet normal -1.75855369105302e-16 8.18098520274049e-16 1.0
outer loop
vertex -6.7999999999999 57.6 140.0
vertex -0.799999999999895 51.6 140.0
vertex -0.799999999999895 57.6 140.0
endloop
endfacet
facet normal -1.75855369105302e-16 8.18098520274049e-16 1.0
outer loop
vertex -0.799999999999895 57.6 140.0
vertex -0.799999999999895 51.6 140.0
vertex -0.79999999999989 5.2 140.0
endloop
endfacet
facet normal -1.75855369105302e-16 8.18098520274049e-16 1.0
outer loop
vertex -0.799999999999895 57.6 140.0
vertex -0.79999999999989 5.2 140.0
vertex -0.799999999999892 104.0 140.0
endloop
endfacet
facet normal -1.75855369105302e-16 8.18098520274049e-16 1.0
outer loop
vertex -0.799999999999863 -0.799999999999999 140.0
vertex -6.79999999999991 5.2 140.0
vertex -6.79999999999991 -0.799999999999999 140.0
endloop
endfacet
facet normal -1.75855369105302e-16 8.18098520274049e-16 1.0
outer loop
vertex -6.79999999999991 5.2 140.0
vertex -0.799999999999863 -0.799999999999999 140.0
vertex -0.79999999999989 5.2 140.0
endloop
endfacet
facet normal -1.75855369105302e-16 8.18098520274049e-16 1.0
outer loop
vertex 161.8 -0.8 140.0
vertex 155.8 5.2 140.0
vertex 155.8 -0.799999999999999 140.0
endloop
endfacet
facet normal -1.75855369105302e-16 8.18098520274049e-16 1.0
outer loop
vertex 155.8 5.2 140.0
vertex 161.8 -0.8 140.0
vertex 161.8 5.2 140.0
endloop
endfacet
facet normal -1.75855369105302e-16 8.18098520274049e-16 1.0
outer loop
vertex 161.8 51.6 140.0
vertex 155.8 57.6 140.0
vertex 155.8 51.6 140.0
endloop
endfacet
facet normal -1.75855369105302e-16 8.18098520274049e-16 1.0
outer loop
vertex 155.8 57.6 140.0
vertex 161.8 51.6 140.0
vertex 161.8 57.6 140.0
endloop
endfacet
facet normal -1.75855369105302e-16 8.18098520274049e-16 1.0
outer loop
vertex -0.799999999999863 -49.5563714646378 140.0
vertex 9.02389274415327e-14 -48.7563714646378 140.0
vertex -0.799999999999863 -0.799999999999999 140.0
endloop
endfacet
facet normal -1.75855369105302e-16 8.18098520274049e-16 1.0
outer loop
vertex 9.02389274415327e-14 -48.7563714646378 140.0
vertex -0.799999999999863 -49.5563714646378 140.0
vertex 155.8 -49.5563714646378 140.0
endloop
endfacet
facet normal -1.75855369105302e-16 8.18098520274049e-16 1.0
outer loop
vertex 9.02389274415327e-14 -48.7563714646378 140.0
vertex 155.8 -49.5563714646378 140.0
vertex 74.5 -48.7563714646378 140.0
endloop
endfacet
facet normal -1.75855369105302e-16 8.18098520274049e-16 1.0
outer loop
vertex 74.5 -48.7563714646378 140.0
vertex 155.8 -49.5563714646378 140.0
vertex 80.5000000000001 -48.7563714646378 140.0
endloop
endfacet
facet normal -1.75855369105302e-16 8.18098520274049e-16 1.0
outer loop
vertex 74.5 -48.7563714646378 140.0
vertex 80.5000000000001 -48.7563714646378 140.0
vertex 80.5 -40.4016603427669 140.0
endloop
endfacet
facet normal -1.75855369105302e-16 8.18098520274049e-16 1.0
outer loop
vertex 80.5000000000001 -48.7563714646378 140.0
vertex 155.8 -49.5563714646378 140.0
vertex 155.0 -48.7563714646378 140.0
endloop
endfacet
facet normal -1.75855369105302e-16 8.18098520274049e-16 1.0
outer loop
vertex 155.0 -48.7563714646378 140.0
vertex 155.8 -49.5563714646378 140.0
vertex 155.0 110.0 140.0
endloop
endfacet
facet normal -1.75855369105302e-16 8.18098520274049e-16 1.0
outer loop
vertex 155.0 110.0 140.0
vertex 155.8 -49.5563714646378 140.0
vertex 155.8 104.0 140.0
endloop
endfacet
facet normal -1.75855369105302e-16 8.18098520274049e-16 1.0
outer loop
vertex 155.0 110.0 140.0
vertex 155.8 104.0 140.0
vertex 161.8 110.0 140.0
endloop
endfacet
facet normal -1.75855369105302e-16 8.18098520274049e-16 1.0
outer loop
vertex 155.8 104.0 140.0
vertex 155.8 -49.5563714646378 140.0
vertex 155.8 -0.799999999999999 140.0
endloop
endfacet
facet normal -1.75855369105302e-16 8.18098520274049e-16 1.0
outer loop
vertex 155.8 104.0 140.0
vertex 155.8 -0.799999999999999 140.0
vertex 155.8 5.2 140.0
endloop
endfacet
facet normal -1.75855369105302e-16 8.18098520274049e-16 1.0
outer loop
vertex 155.8 104.0 140.0
vertex 155.8 5.2 140.0
vertex 155.8 51.6 140.0
endloop
endfacet
facet normal -1.75855369105302e-16 8.18098520274049e-16 1.0
outer loop
vertex 155.8 104.0 140.0
vertex 155.8 51.6 140.0
vertex 155.8 57.6 140.0
endloop
endfacet
facet normal -1.75855369105302e-16 8.18098520274049e-16 1.0
outer loop
vertex 161.8 110.0 140.0
vertex 155.8 104.0 140.0
vertex 161.8 104.0 140.0
endloop
endfacet
facet normal -1.75855369105302e-16 8.18098520274049e-16 1.0
outer loop
vertex 80.5 -40.4016603427669 140.0
vertex 74.5 -40.4016603427669 140.0
vertex 74.5 -48.7563714646378 140.0
endloop
endfacet
facet normal -1.75855369105302e-16 8.18098520274049e-16 1.0
outer loop
vertex -0.799999999999892 104.0 140.0
vertex -6.79999999999989 110.0 140.0
vertex -6.79999999999989 104.0 140.0
endloop
endfacet
facet normal -1.75855369105302e-16 8.18098520274049e-16 1.0
outer loop
vertex -6.79999999999989 110.0 140.0
vertex -0.799999999999892 104.0 140.0
vertex 1.08286712929839e-13 110.0 140.0
endloop
endfacet
facet normal -1.75855369105302e-16 8.18098520274049e-16 1.0
outer loop
vertex 1.08286712929839e-13 110.0 140.0
vertex -0.799999999999892 104.0 140.0
vertex -0.79999999999989 5.2 140.0
endloop
endfacet
facet normal -1.75855369105302e-16 8.18098520274049e-16 1.0
outer loop
vertex 1.08286712929839e-13 110.0 140.0
vertex -0.79999999999989 5.2 140.0
vertex -0.799999999999863 -0.799999999999999 140.0
endloop
endfacet
facet normal -1.75855369105302e-16 8.18098520274049e-16 1.0
outer loop
vertex 1.08286712929839e-13 110.0 140.0
vertex -0.799999999999863 -0.799999999999999 140.0
vertex 9.02389274415327e-14 -48.7563714646378 140.0
endloop
endfacet
facet normal 8.63406496975223e-14 1.0 3.55273739992776e-15
outer loop
vertex 155.8 -0.799999999999999 140.0
vertex 161.8 -0.8 -0.800000000000008
vertex 155.8 -0.799999999999999 -0.800000000000008
endloop
endfacet
facet normal 8.63406496975223e-14 1.0 3.55273739992776e-15
outer loop
vertex 161.8 -0.8 -0.800000000000008
vertex 155.8 -0.799999999999999 140.0
vertex 161.8 -0.8 140.0
endloop
endfacet
facet normal 1.0 -0.0 -0.0
outer loop
vertex 155.8 -0.799999999999999 140.0
vertex 155.8 -49.5563714646378 140.0
vertex 155.8 -0.799999999999999 -0.800000000000008
endloop
endfacet
facet normal 1.0 -0.0 -0.0
outer loop
vertex 155.0 52.0 0.0
vertex 155.0 6.0 6.0
vertex 155.0 6.0 0.0
endloop
endfacet
facet normal 1.0 -0.0 -0.0
outer loop
vertex 155.0 104.0 0.0
vertex 155.0 58.0 6.0
vertex 155.0 58.0 0.0
endloop
endfacet
facet normal 1.0 -0.0 -0.0
outer loop
vertex 155.0 -2.35471112187017 6.0
vertex 155.0 110.0 140.0
vertex 155.0 -48.7563714646378 140.0
endloop
endfacet
facet normal 1.0 -0.0 -0.0
outer loop
vertex 155.0 110.0 140.0
vertex 155.0 -2.35471112187017 6.0
vertex 155.0 6.0 6.0
endloop
endfacet
facet normal 1.0 -0.0 -0.0
outer loop
vertex 155.0 110.0 140.0
vertex 155.0 6.0 6.0
vertex 155.0 52.0 6.0
endloop
endfacet
facet normal 1.0 -0.0 -0.0
outer loop
vertex 155.0 52.0 6.0
vertex 155.0 6.0 6.0
vertex 155.0 52.0 0.0
endloop
endfacet
facet normal 1.0 -0.0 -0.0
outer loop
vertex 155.0 110.0 140.0
vertex 155.0 52.0 6.0
vertex 155.0 58.0 6.0
endloop
endfacet
facet normal 1.0 -0.0 -0.0
outer loop
vertex 155.0 110.0 140.0
vertex 155.0 58.0 6.0
vertex 155.0 104.0 6.0
endloop
endfacet
facet normal 1.0 -0.0 -0.0
outer loop
vertex 155.0 104.0 6.0
vertex 155.0 58.0 6.0
vertex 155.0 104.0 0.0
endloop
endfacet
facet normal 1.0 -0.0 -0.0
outer loop
vertex 155.0 110.0 140.0
vertex 155.0 104.0 6.0
vertex 155.0 110.0 6.0
endloop
endfacet
facet normal -0.0 0.944948912157529 0.32721789897911
outer loop
vertex 74.5 -40.4016603427669 140.0
vertex 80.5 6.0 6.0
vertex 74.5 6.0 6.0
endloop
endfacet
facet normal -0.0 0.944948912157529 0.32721789897911
outer loop
vertex 80.5 6.0 6.0
vertex 74.5 -40.4016603427669 140.0
vertex 80.5 -40.4016603427669 140.0
endloop
endfacet
facet normal -2.164488840448e-15 3.05007900681924e-14 1.0
outer loop
vertex 9.62852506181648e-14 -2.35471112187167 6.00000000000001
vertex 74.5 6.0 6.0
vertex 9.02389274415327e-15 6.0 6.0
endloop
endfacet
facet normal -2.164488840448e-15 3.05007900681924e-14 1.0
outer loop
vertex 74.5 6.0 6.0
vertex 9.62852506181648e-14 -2.35471112187167 6.00000000000001
vertex 74.5 -2.35471112187167 6.00000000000057
endloop
endfacet
facet normal 1.92628526584566e-34 1.0 9.39988827515966e-17
outer loop
vertex 9.02389274415327e-15 6.0 6.0
vertex 155.0 6.0 0.0
vertex 9.02389274415327e-15 6.0 0.0
endloop
endfacet
facet normal 1.92628526584566e-34 1.0 9.39988827515966e-17
outer loop
vertex 155.0 6.0 0.0
vertex 9.02389274415327e-15 6.0 6.0
vertex 155.0 6.0 6.0
endloop
endfacet
facet normal 1.92628526584566e-34 1.0 9.39988827515966e-17
outer loop
vertex 155.0 6.0 6.0
vertex 9.02389274415327e-15 6.0 6.0
vertex 74.5 6.0 6.0
endloop
endfacet
facet normal 1.92628526584566e-34 1.0 9.39988827515966e-17
outer loop
vertex 155.0 6.0 6.0
vertex 74.5 6.0 6.0
vertex 80.5 6.0 6.0
endloop
endfacet
facet normal -0.0 1.0 -0.0
outer loop
vertex -6.7999999999999 57.6 140.0
vertex -0.799999999999895 57.6 -0.799999999999999
vertex -6.7999999999999 57.6 -0.799999999999999
endloop
endfacet
facet normal -0.0 1.0 -0.0
outer loop
vertex -0.799999999999895 57.6 -0.799999999999999
vertex -6.7999999999999 57.6 140.0
vertex -0.799999999999895 57.6 140.0
endloop
endfacet
facet normal -1.0 -2.61544671530099e-16 1.08972109924676e-16
outer loop
vertex -0.799999999999892 104.0 140.0
vertex -0.799999999999895 57.6 -0.799999999999999
vertex -0.799999999999895 57.6 140.0
endloop
endfacet
facet normal -1.0 -2.61544671530099e-16 1.08972109924676e-16
outer loop
vertex -0.799999999999895 57.6 -0.799999999999999
vertex -0.799999999999892 104.0 140.0
vertex -0.799999999999892 104.0 -0.800000000000008
endloop
endfacet
facet normal -0.0 -0.0 1.0
outer loop
vertex 155.0 58.0 0.0
vertex 9.02389274415327e-15 104.0 0.0
vertex -9.02389274415327e-15 58.0 0.0
endloop
endfacet
facet normal -0.0 -0.0 1.0
outer loop
vertex 9.02389274415327e-15 104.0 0.0
vertex 155.0 58.0 0.0
vertex 155.0 104.0 0.0
endloop
endfacet
facet normal -0.0 1.0 -0.0
outer loop
vertex -9.02389274415327e-15 58.0 6.0
vertex 155.0 58.0 0.0
vertex -9.02389274415327e-15 58.0 0.0
endloop
endfacet
facet normal -0.0 1.0 -0.0
outer loop
vertex 155.0 58.0 0.0
vertex -9.02389274415327e-15 58.0 6.0
vertex 155.0 58.0 6.0
endloop
endfacet
facet normal -0.0 -0.0 1.0
outer loop
vertex 9.02389274415327e-15 6.0 0.0
vertex 155.0 52.0 0.0
vertex -9.02389274415327e-15 52.0 0.0
endloop
endfacet
facet normal -0.0 -0.0 1.0
outer loop
vertex 155.0 52.0 0.0
vertex 9.02389274415327e-15 6.0 0.0
vertex 155.0 6.0 0.0
endloop
endfacet
facet normal -0.0 1.0 -0.0
outer loop
vertex -9.02389274415327e-15 52.0 6.0
vertex 155.0 52.0 0.0
vertex -9.02389274415327e-15 52.0 0.0
endloop
endfacet
facet normal -0.0 1.0 -0.0
outer loop
vertex 155.0 52.0 0.0
vertex -9.02389274415327e-15 52.0 6.0
vertex 155.0 52.0 6.0
endloop
endfacet
facet normal -1.49136482432728e-15 -1.32986859499597e-14 1.0
outer loop
vertex 80.5000000000001 -2.35471112187084 5.99999999999978
vertex 155.0 6.0 6.0
vertex 80.5 6.0 6.0
endloop
endfacet
facet normal -1.49136482432728e-15 -1.32986859499597e-14 1.0
outer loop
vertex 155.0 6.0 6.0
vertex 80.5000000000001 -2.35471112187084 5.99999999999978
vertex 155.0 -2.35471112187017 6.0
endloop
endfacet
facet normal -3.03983635977466e-17 -6.3462366503985e-17 -1.0
outer loop
vertex -0.79999999999989 5.2 -0.799999999999999
vertex -6.79999999999991 -0.799999999999999 -0.799999999999999
vertex -6.79999999999991 5.2 -0.799999999999999
endloop
endfacet
facet normal -3.03983635977466e-17 -6.3462366503985e-17 -1.0
outer loop
vertex -6.79999999999991 -0.799999999999999 -0.799999999999999
vertex -0.79999999999989 5.2 -0.799999999999999
vertex -0.799999999999863 -0.799999999999999 -0.800000000000008
endloop
endfacet
facet normal -3.03983635977466e-17 -6.3462366503985e-17 -1.0
outer loop
vertex -0.799999999999895 57.6 -0.799999999999999
vertex -6.7999999999999 51.6 -0.799999999999999
vertex -6.7999999999999 57.6 -0.799999999999999
endloop
endfacet
facet normal -3.03983635977466e-17 -6.3462366503985e-17 -1.0
outer loop
vertex -6.7999999999999 51.6 -0.799999999999999
vertex -0.799999999999895 57.6 -0.799999999999999
vertex -0.799999999999895 51.6 -0.799999999999999
endloop
endfacet
facet normal -3.03983635977466e-17 -6.3462366503985e-17 -1.0
outer loop
vertex -0.799999999999895 51.6 -0.799999999999999
vertex -0.799999999999895 57.6 -0.799999999999999
vertex -0.799999999999892 104.0 -0.800000000000008
endloop
endfacet
facet normal -3.03983635977466e-17 -6.3462366503985e-17 -1.0
outer loop
vertex -0.799999999999895 51.6 -0.799999999999999
vertex -0.799999999999892 104.0 -0.800000000000008
vertex -0.79999999999989 5.2 -0.799999999999999
endloop
endfacet
facet normal -3.03983635977466e-17 -6.3462366503985e-17 -1.0
outer loop
vertex 161.8 110.0 -0.800000000000017
vertex -6.79999999999989 104.0 -0.800000000000008
vertex -6.79999999999989 110.0 -0.800000000000008
endloop
endfacet
facet normal -3.03983635977466e-17 -6.3462366503985e-17 -1.0
outer loop
vertex -6.79999999999989 104.0 -0.800000000000008
vertex 161.8 110.0 -0.800000000000017
vertex -0.799999999999892 104.0 -0.800000000000008
endloop
endfacet
facet normal -3.03983635977466e-17 -6.3462366503985e-17 -1.0
outer loop
vertex -0.799999999999892 104.0 -0.800000000000008
vertex 161.8 110.0 -0.800000000000017
vertex -0.79999999999989 5.2 -0.799999999999999
endloop
endfacet
facet normal -3.03983635977466e-17 -6.3462366503985e-17 -1.0
outer loop
vertex -0.79999999999989 5.2 -0.799999999999999
vertex 161.8 110.0 -0.800000000000017
vertex -0.799999999999863 -0.799999999999999 -0.800000000000008
endloop
endfacet
facet normal -3.03983635977466e-17 -6.3462366503985e-17 -1.0
outer loop
vertex -0.799999999999863 -0.799999999999999 -0.800000000000008
vertex 161.8 110.0 -0.800000000000017
vertex 155.8 104.0 -0.800000000000017
endloop
endfacet
facet normal -3.03983635977466e-17 -6.3462366503985e-17 -1.0
outer loop
vertex 155.8 104.0 -0.800000000000017
vertex 161.8 110.0 -0.800000000000017
vertex 161.8 104.0 -0.800000000000017
endloop
endfacet
facet normal -3.03983635977466e-17 -6.3462366503985e-17 -1.0
outer loop
vertex 161.8 57.6 -0.799999999999999
vertex 155.8 51.6 -0.799999999999999
vertex 155.8 57.6 -0.799999999999999
endloop
endfacet
facet normal -3.03983635977466e-17 -6.3462366503985e-17 -1.0
outer loop
vertex 155.8 51.6 -0.799999999999999
vertex 161.8 57.6 -0.799999999999999
vertex 161.8 51.6 -0.799999999999999
endloop
endfacet
facet normal -3.03983635977466e-17 -6.3462366503985e-17 -1.0
outer loop
vertex 155.8 104.0 -0.800000000000017
vertex 155.8 -0.799999999999999 -0.800000000000008
vertex -0.799999999999863 -0.799999999999999 -0.800000000000008
endloop
endfacet
facet normal -3.03983635977466e-17 -6.3462366503985e-17 -1.0
outer loop
vertex 155.8 -0.799999999999999 -0.800000000000008
vertex 155.8 104.0 -0.800000000000017
vertex 155.8 57.6 -0.799999999999999
endloop
endfacet
facet normal -3.03983635977466e-17 -6.3462366503985e-17 -1.0
outer loop
vertex 155.8 -0.799999999999999 -0.800000000000008
vertex 155.8 57.6 -0.799999999999999
vertex 155.8 51.6 -0.799999999999999
endloop
endfacet
facet normal -3.03983635977466e-17 -6.3462366503985e-17 -1.0
outer loop
vertex 155.8 -0.799999999999999 -0.800000000000008
vertex 155.8 51.6 -0.799999999999999
vertex 155.8 5.2 -0.800000000000008
endloop
endfacet
facet normal -3.03983635977466e-17 -6.3462366503985e-17 -1.0
outer loop
vertex 155.8 -0.799999999999999 -0.800000000000008
vertex 155.8 5.2 -0.800000000000008
vertex 161.8 5.2 -0.800000000000008
endloop
endfacet
facet normal -3.03983635977466e-17 -6.3462366503985e-17 -1.0
outer loop
vertex 155.8 -0.799999999999999 -0.800000000000008
vertex 161.8 5.2 -0.800000000000008
vertex 161.8 -0.8 -0.800000000000008
endloop
endfacet
facet normal 1.08652915880648e-33 -0.944948912157531 -0.327217898979105
outer loop
vertex 155.8 -49.5563714646378 140.0
vertex -0.799999999999863 -0.799999999999999 -0.800000000000008
vertex 155.8 -0.799999999999999 -0.800000000000008
endloop
endfacet
facet normal 1.08652915880648e-33 -0.944948912157531 -0.327217898979105
outer loop
vertex -0.799999999999863 -0.799999999999999 -0.800000000000008
vertex 155.8 -49.5563714646378 140.0
vertex -0.799999999999863 -49.5563714646378 140.0
endloop
endfacet
facet normal 0.0 -1.0 0.0
outer loop
vertex -0.799999999999892 104.0 140.0
vertex -6.79999999999989 104.0 -0.800000000000008
vertex -0.799999999999892 104.0 -0.800000000000008
endloop
endfacet
facet normal 0.0 -1.0 0.0
outer loop
vertex -6.79999999999989 104.0 -0.800000000000008
vertex -0.799999999999892 104.0 140.0
vertex -6.79999999999989 104.0 140.0
endloop
endfacet
endsolid sucker2000load_part2g
