solid sucker2000load_part2
facet normal 3.16567747116574e-18 -1.37884752607316e-16 1.0
outer loop
vertex 9.02389274415327e-14 60.0 0.0
vertex 1550.0 520.0 0.0
vertex -9.02389274415327e-14 520.0 0.0
endloop
endfacet
facet normal 3.16567747116574e-18 -1.37884752607316e-16 1.0
outer loop
vertex 1550.0 520.0 0.0
vertex 9.02389274415327e-14 60.0 0.0
vertex 1550.0 60.0 0.0
endloop
endfacet
facet normal -0.0 1.0 -0.0
outer loop
vertex -67.9999999999988 1100.0 1400.0
vertex 9.02389274415327e-14 1100.0 60.0
vertex -67.9999999999988 1100.0 -8.00000000000008
endloop
endfacet
facet normal -0.0 1.0 -0.0
outer loop
vertex 9.02389274415327e-14 1100.0 60.0
vertex -67.9999999999988 1100.0 1400.0
vertex 1.08286712929839e-12 1100.0 1400.0
endloop
endfacet
facet normal -0.0 1.0 -0.0
outer loop
vertex 1618.0 1100.0 -8.00000000000017
vertex 1550.0 1100.0 60.0
vertex 1618.0 1100.0 1400.0
endloop
endfacet
facet normal -0.0 1.0 -0.0
outer loop
vertex 1550.0 1100.0 60.0
vertex 1618.0 1100.0 -8.00000000000017
vertex -67.9999999999988 1100.0 -8.00000000000008
endloop
endfacet
facet normal -0.0 1.0 -0.0
outer loop
vertex 1550.0 1100.0 60.0
vertex -67.9999999999988 1100.0 -8.00000000000008
vertex 9.02389274415327e-14 1100.0 60.0
endloop
endfacet
facet normal -0.0 1.0 -0.0
outer loop
vertex 1618.0 1100.0 1400.0
vertex 1550.0 1100.0 60.0
vertex 1550.0 1100.0 1400.0
endloop
endfacet
facet normal 1.0 -0.0 -0.0
outer loop
vertex 1558.0 1040.0 -8.00000000000017
vertex 1558.0 576.0 1400.0
vertex 1558.0 576.0 -7.99999999999998
endloop
endfacet
facet normal 1.0 -0.0 -0.0
outer loop
vertex 1558.0 576.0 1400.0
vertex 1558.0 1040.0 -8.00000000000017
vertex 1558.0 1040.0 1400.0
endloop
endfacet
facet normal 1.0 4.40276392523078e-14 3.84338020672473e-15
outer loop
vertex 9.64878357373114e-13 -8.00000000000008 15.1026215889963
vertex 9.02389274415327e-14 0.0 60.0
vertex 9.62852506181648e-13 -23.5471112187167 60.0000000000001
endloop
endfacet
facet normal 1.0 4.40276392523078e-14 3.84338020672473e-15
outer loop
vertex 9.02389274415327e-14 0.0 60.0
vertex 9.64878357373114e-13 -8.00000000000008 15.1026215889963
vertex 0.0 0.0 0.0
endloop
endfacet
facet normal 0.0 -1.0 0.0
outer loop
vertex 1550.0 520.0 60.0
vertex -9.02389274415327e-14 520.0 0.0
vertex 1550.0 520.0 0.0
endloop
endfacet
facet normal 0.0 -1.0 0.0
outer loop
vertex -9.02389274415327e-14 520.0 0.0
vertex 1550.0 520.0 60.0
vertex -9.02389274415327e-14 520.0 60.0
endloop
endfacet
facet normal 0.0 -0.0 1.0
outer loop
vertex 1550.0 520.0 60.0
vertex -9.02389274415327e-14 580.0 60.0
vertex -9.02389274415327e-14 520.0 60.0
endloop
endfacet
facet normal 0.0 -0.0 1.0
outer loop
vertex -9.02389274415327e-14 580.0 60.0
vertex 1550.0 520.0 60.0
vertex 1550.0 580.0 60.0
endloop
endfacet
facet normal -0.0 1.0 -0.0
outer loop
vertex -9.02389274415327e-14 580.0 60.0
vertex 1550.0 580.0 0.0
vertex -9.02389274415327e-14 580.0 0.0
endloop
endfacet
facet normal -0.0 1.0 -0.0
outer loop
vertex 1550.0 580.0 0.0
vertex -9.02389274415327e-14 580.0 60.0
vertex 1550.0 580.0 60.0
endloop
endfacet
facet normal -0.0 -0.0 1.0
outer loop
vertex 1550.0 520.0 0.0
vertex -9.02389274415327e-14 580.0 0.0
vertex -9.02389274415327e-14 520.0 0.0
endloop
endfacet
facet normal -0.0 -0.0 1.0
outer loop
vertex -9.02389274415327e-14 580.0 0.0
vertex 1550.0 520.0 0.0
vertex 1550.0 580.0 0.0
endloop
endfacet
facet normal 6.93487197661025e-33 -1.92579795314228e-32 1.0
outer loop
vertex 1550.0 580.0 0.0
vertex 9.02389274415327e-14 1040.0 0.0
vertex -9.02389274415327e-14 580.0 0.0
endloop
endfacet
facet normal 6.93487197661025e-33 -1.92579795314228e-32 1.0
outer loop
vertex 9.02389274415327e-14 1040.0 0.0
vertex 1550.0 580.0 0.0
vertex 1550.0 1040.0 0.0
endloop
endfacet
facet normal 0.0 -1.0 0.0
outer loop
vertex 1550.0 1040.0 60.0
vertex 9.02389274415327e-14 1040.0 0.0
vertex 1550.0 1040.0 0.0
endloop
endfacet
facet normal 0.0 -1.0 0.0
outer loop
vertex 9.02389274415327e-14 1040.0 0.0
vertex 1550.0 1040.0 60.0
vertex 9.02389274415327e-14 1040.0 60.0
endloop
endfacet
facet normal -0.0 -0.0 1.0
outer loop
vertex 1550.0 1040.0 60.0
vertex 9.02389274415327e-14 1100.0 60.0
vertex 9.02389274415327e-14 1040.0 60.0
endloop
endfacet
facet normal -0.0 -0.0 1.0
outer loop
vertex 9.02389274415327e-14 1100.0 60.0
vertex 1550.0 1040.0 60.0
vertex 1550.0 1100.0 60.0
endloop
endfacet
facet normal -2.80959550198645e-17 -4.84130918087171e-17 -1.0
outer loop
vertex -7.9999999999989 52.0 -7.99999999999998
vertex -67.9999999999991 -7.99999999999999 -7.99999999999998
vertex -67.9999999999991 52.0 -7.99999999999998
endloop
endfacet
facet normal -2.80959550198645e-17 -4.84130918087171e-17 -1.0
outer loop
vertex -67.9999999999991 -7.99999999999999 -7.99999999999998
vertex -7.9999999999989 52.0 -7.99999999999998
vertex -7.99999999999863 -7.99999999999999 -8.00000000000008
endloop
endfacet
facet normal -2.80959550198645e-17 -4.84130918087171e-17 -1.0
outer loop
vertex -7.99999999999895 576.0 -7.99999999999998
vertex -67.999999999999 516.0 -7.99999999999998
vertex -67.999999999999 576.0 -7.99999999999998
endloop
endfacet
facet normal -2.80959550198645e-17 -4.84130918087171e-17 -1.0
outer loop
vertex -67.999999999999 516.0 -7.99999999999998
vertex -7.99999999999895 576.0 -7.99999999999998
vertex -7.99999999999895 516.0 -7.99999999999998
endloop
endfacet
facet normal -2.80959550198645e-17 -4.84130918087171e-17 -1.0
outer loop
vertex -7.99999999999895 516.0 -7.99999999999998
vertex -7.99999999999895 576.0 -7.99999999999998
vertex -7.99999999999892 1040.0 -8.00000000000008
endloop
endfacet
facet normal -2.80959550198645e-17 -4.84130918087171e-17 -1.0
outer loop
vertex -7.99999999999895 516.0 -7.99999999999998
vertex -7.99999999999892 1040.0 -8.00000000000008
vertex -7.9999999999989 52.0 -7.99999999999998
endloop
endfacet
facet normal -2.80959550198645e-17 -4.84130918087171e-17 -1.0
outer loop
vertex 1618.0 1100.0 -8.00000000000017
vertex -67.9999999999988 1040.0 -8.00000000000008
vertex -67.9999999999988 1100.0 -8.00000000000008
endloop
endfacet
facet normal -2.80959550198645e-17 -4.84130918087171e-17 -1.0
outer loop
vertex -67.9999999999988 1040.0 -8.00000000000008
vertex 1618.0 1100.0 -8.00000000000017
vertex -7.99999999999892 1040.0 -8.00000000000008
endloop
endfacet
facet normal -2.80959550198645e-17 -4.84130918087171e-17 -1.0
outer loop
vertex -7.99999999999892 1040.0 -8.00000000000008
vertex 1618.0 1100.0 -8.00000000000017
vertex -7.9999999999989 52.0 -7.99999999999998
endloop
endfacet
facet normal -2.80959550198645e-17 -4.84130918087171e-17 -1.0
outer loop
vertex -7.9999999999989 52.0 -7.99999999999998
vertex 1618.0 1100.0 -8.00000000000017
vertex -7.99999999999863 -7.99999999999999 -8.00000000000008
endloop
endfacet
facet normal -2.80959550198645e-17 -4.84130918087171e-17 -1.0
outer loop
vertex -7.99999999999863 -7.99999999999999 -8.00000000000008
vertex 1618.0 1100.0 -8.00000000000017
vertex 1.02646779964743e-12 -7.99999999999999 -8.00000000000008
endloop
endfacet
facet normal -2.80959550198645e-17 -4.84130918087171e-17 -1.0
outer loop
vertex 1.02646779964743e-12 -7.99999999999999 -8.00000000000008
vertex 1618.0 1100.0 -8.00000000000017
vertex 1558.0 1040.0 -8.00000000000017
endloop
endfacet
facet normal -2.80959550198645e-17 -4.84130918087171e-17 -1.0
outer loop
vertex 1.02646779964743e-12 -7.99999999999999 -8.00000000000008
vertex 1558.0 1040.0 -8.00000000000017
vertex 1550.0 -7.99999999999999 -8.00000000000008
endloop
endfacet
facet normal -2.80959550198645e-17 -4.84130918087171e-17 -1.0
outer loop
vertex 1558.0 1040.0 -8.00000000000017
vertex 1618.0 1100.0 -8.00000000000017
vertex 1618.0 1040.0 -8.00000000000017
endloop
endfacet
facet normal -2.80959550198645e-17 -4.84130918087171e-17 -1.0
outer loop
vertex 1618.0 576.0 -7.99999999999998
vertex 1558.0 516.0 -7.99999999999998
vertex 1558.0 576.0 -7.99999999999998
endloop
endfacet
facet normal -2.80959550198645e-17 -4.84130918087171e-17 -1.0
outer loop
vertex 1558.0 516.0 -7.99999999999998
vertex 1618.0 576.0 -7.99999999999998
vertex 1618.0 516.0 -7.99999999999998
endloop
endfacet
facet normal -2.80959550198645e-17 -4.84130918087171e-17 -1.0
outer loop
vertex 1558.0 1040.0 -8.00000000000017
vertex 1558.0 -7.99999999999999 -8.00000000000008
vertex 1550.0 -7.99999999999999 -8.00000000000008
endloop
endfacet
facet normal -2.80959550198645e-17 -4.84130918087171e-17 -1.0
outer loop
vertex 1558.0 -7.99999999999999 -8.00000000000008
vertex 1558.0 1040.0 -8.00000000000017
vertex 1558.0 576.0 -7.99999999999998
endloop
endfacet
facet normal -2.80959550198645e-17 -4.84130918087171e-17 -1.0
outer loop
vertex 1558.0 -7.99999999999999 -8.00000000000008
vertex 1558.0 576.0 -7.99999999999998
vertex 1558.0 516.0 -7.99999999999998
endloop
endfacet
facet normal -2.80959550198645e-17 -4.84130918087171e-17 -1.0
outer loop
vertex 1558.0 -7.99999999999999 -8.00000000000008
vertex 1558.0 516.0 -7.99999999999998
vertex 1558.0 52.0 -8.00000000000008
endloop
endfacet
facet normal -2.80959550198645e-17 -4.84130918087171e-17 -1.0
outer loop
vertex 1558.0 -7.99999999999999 -8.00000000000008
vertex 1558.0 52.0 -8.00000000000008
vertex 1618.0 52.0 -8.00000000000008
endloop
endfacet
facet normal -2.80959550198645e-17 -4.84130918087171e-17 -1.0
outer loop
vertex 1558.0 -7.99999999999999 -8.00000000000008
vertex 1618.0 52.0 -8.00000000000008
vertex 1618.0 -8.0 -8.00000000000008
endloop
endfacet
facet normal -8.67148364867128e-19 -1.0 -3.20823165484331e-35
outer loop
vertex -7.99999999999863 -7.99999999999999 1400.0
vertex -67.9999999999991 -7.99999999999999 -7.99999999999998
vertex -7.99999999999863 -7.99999999999999 -8.00000000000008
endloop
endfacet
facet normal -8.67148364867128e-19 -1.0 -3.20823165484331e-35
outer loop
vertex -67.9999999999991 -7.99999999999999 -7.99999999999998
vertex -7.99999999999863 -7.99999999999999 1400.0
vertex -67.9999999999991 -7.99999999999999 1400.0
endloop
endfacet
facet normal 1.0 -0.0 -0.0
outer loop
vertex 1550.0 60.0 0.0
vertex 1550.0 0.0 60.0
vertex 1550.0 0.0 0.0
endloop
endfacet
facet normal 1.0 -0.0 -0.0
outer loop
vertex 1550.0 0.0 60.0
vertex 1550.0 60.0 0.0
vertex 1550.0 60.0 60.0
endloop
endfacet
facet normal -1.0 0.0 0.0
outer loop
vertex 1618.0 52.0 1400.0
vertex 1618.0 -8.0 -8.00000000000008
vertex 1618.0 -8.0 1400.0
endloop
endfacet
facet normal -1.0 0.0 0.0
outer loop
vertex 1618.0 -8.0 -8.00000000000008
vertex 1618.0 52.0 1400.0
vertex 1618.0 52.0 -8.00000000000008
endloop
endfacet
facet normal 0.0 -1.0 0.0
outer loop
vertex 1618.0 52.0 1400.0
vertex 1558.0 52.0 -8.00000000000008
vertex 1618.0 52.0 -8.00000000000008
endloop
endfacet
facet normal 0.0 -1.0 0.0
outer loop
vertex 1558.0 52.0 -8.00000000000008
vertex 1618.0 52.0 1400.0
vertex 1558.0 52.0 1400.0
endloop
endfacet
facet normal 0.0 -1.0 0.0
outer loop
vertex 1618.0 1040.0 1400.0
vertex 1558.0 1040.0 -8.00000000000017
vertex 1618.0 1040.0 -8.00000000000017
endloop
endfacet
facet normal 0.0 -1.0 0.0
outer loop
vertex 1558.0 1040.0 -8.00000000000017
vertex 1618.0 1040.0 1400.0
vertex 1558.0 1040.0 1400.0
endloop
endfacet
facet normal 1.0 -0.0 0.0
outer loop
vertex 1618.0 1100.0 -8.00000000000017
vertex 1618.0 1040.0 1400.0
vertex 1618.0 1040.0 -8.00000000000017
endloop
endfacet
facet normal 1.0 -0.0 0.0
outer loop
vertex 1618.0 1040.0 1400.0
vertex 1618.0 1100.0 -8.00000000000017
vertex 1618.0 1100.0 1400.0
endloop
endfacet
facet normal -0.0 1.0 -0.0
outer loop
vertex 1558.0 576.0 1400.0
vertex 1618.0 576.0 -7.99999999999998
vertex 1558.0 576.0 -7.99999999999998
endloop
endfacet
facet normal -0.0 1.0 -0.0
outer loop
vertex 1618.0 576.0 -7.99999999999998
vertex 1558.0 576.0 1400.0
vertex 1618.0 576.0 1400.0
endloop
endfacet
facet normal 0.0 -1.0 0.0
outer loop
vertex 1618.0 516.0 1400.0
vertex 1558.0 516.0 -7.99999999999998
vertex 1618.0 516.0 -7.99999999999998
endloop
endfacet
facet normal 0.0 -1.0 0.0
outer loop
vertex 1558.0 516.0 -7.99999999999998
vertex 1618.0 516.0 1400.0
vertex 1558.0 516.0 1400.0
endloop
endfacet
facet normal 1.0 -0.0 0.0
outer loop
vertex 1618.0 576.0 -7.99999999999998
vertex 1618.0 516.0 1400.0
vertex 1618.0 516.0 -7.99999999999998
endloop
endfacet
facet normal 1.0 -0.0 0.0
outer loop
vertex 1618.0 516.0 1400.0
vertex 1618.0 576.0 -7.99999999999998
vertex 1618.0 576.0 1400.0
endloop
endfacet
facet normal 1.0 -0.0 -0.0
outer loop
vertex 1558.0 516.0 -7.99999999999998
vertex 1558.0 52.0 1400.0
vertex 1558.0 52.0 -8.00000000000008
endloop
endfacet
facet normal 1.0 -0.0 -0.0
outer loop
vertex 1558.0 52.0 1400.0
vertex 1558.0 516.0 -7.99999999999998
vertex 1558.0 516.0 1400.0
endloop
endfacet
facet normal -1.0 -0.0 -0.0
outer loop
vertex -67.9999999999988 1100.0 1400.0
vertex -67.9999999999988 1040.0 -8.00000000000008
vertex -67.9999999999988 1040.0 1400.0
endloop
endfacet
facet normal -1.0 -0.0 -0.0
outer loop
vertex -67.9999999999988 1040.0 -8.00000000000008
vertex -67.9999999999988 1100.0 1400.0
vertex -67.9999999999988 1100.0 -8.00000000000008
endloop
endfacet
facet normal 0.0 -1.0 0.0
outer loop
vertex -7.99999999999946 1040.0 2.83608057673389e-15
vertex -67.9999999999988 1040.0 -8.00000000000008
vertex -7.99999999999892 1040.0 -8.00000000000008
endloop
endfacet
facet normal 0.0 -1.0 0.0
outer loop
vertex -67.9999999999988 1040.0 -8.00000000000008
vertex -7.99999999999946 1040.0 2.83608057673389e-15
vertex -67.9999999999988 1040.0 1400.0
endloop
endfacet
facet normal 0.0 -1.0 0.0
outer loop
vertex -67.9999999999988 1040.0 1400.0
vertex -7.99999999999946 1040.0 2.83608057673389e-15
vertex -7.99999999999892 1040.0 1400.0
endloop
endfacet
facet normal 4.31100903834831e-16 -1.0 -1.81620183207794e-17
outer loop
vertex -7.99999999999934 516.0 9.23714418751922e-14
vertex -67.999999999999 516.0 -7.99999999999998
vertex -7.99999999999895 516.0 -7.99999999999998
endloop
endfacet
facet normal 4.31100903834831e-16 -1.0 -1.81620183207794e-17
outer loop
vertex -67.999999999999 516.0 -7.99999999999998
vertex -7.99999999999934 516.0 9.23714418751922e-14
vertex -67.999999999999 516.0 1400.0
endloop
endfacet
facet normal 4.31100903834831e-16 -1.0 -1.81620183207794e-17
outer loop
vertex -67.999999999999 516.0 1400.0
vertex -7.99999999999934 516.0 9.23714418751922e-14
vertex -7.99999999999895 516.0 1400.0
endloop
endfacet
facet normal -0.0 1.0 -0.0
outer loop
vertex -67.999999999999 576.0 1400.0
vertex -7.99999999999895 576.0 -7.99999999999998
vertex -67.999999999999 576.0 -7.99999999999998
endloop
endfacet
facet normal -0.0 1.0 -0.0
outer loop
vertex -7.99999999999895 576.0 -7.99999999999998
vertex -67.999999999999 576.0 1400.0
vertex -7.99999999999933 576.0 9.22896318585557e-14
endloop
endfacet
facet normal -0.0 1.0 -0.0
outer loop
vertex -7.99999999999933 576.0 9.22896318585557e-14
vertex -67.999999999999 576.0 1400.0
vertex -7.99999999999895 576.0 1400.0
endloop
endfacet
facet normal -1.0 -0.0 -0.0
outer loop
vertex -67.999999999999 576.0 1400.0
vertex -67.999999999999 516.0 -7.99999999999998
vertex -67.999999999999 516.0 1400.0
endloop
endfacet
facet normal -1.0 -0.0 -0.0
outer loop
vertex -67.999999999999 516.0 -7.99999999999998
vertex -67.999999999999 576.0 1400.0
vertex -67.999999999999 576.0 -7.99999999999998
endloop
endfacet
facet normal -1.0 -4.6594273777731e-17 1.61793757292868e-16
outer loop
vertex -7.99999999999892 1040.0 1400.0
vertex -7.99999999999933 576.0 9.22896318585557e-14
vertex -7.99999999999895 576.0 1400.0
endloop
endfacet
facet normal -1.0 -4.6594273777731e-17 1.61793757292868e-16
outer loop
vertex -7.99999999999933 576.0 9.22896318585557e-14
vertex -7.99999999999892 1040.0 1400.0
vertex -7.99999999999895 576.0 -7.99999999999998
endloop
endfacet
facet normal -1.0 -4.6594273777731e-17 1.61793757292868e-16
outer loop
vertex -7.99999999999895 576.0 -7.99999999999998
vertex -7.99999999999892 1040.0 1400.0
vertex -7.99999999999892 1040.0 -8.00000000000008
endloop
endfacet
facet normal -1.0 -4.6594273777731e-17 1.61793757292868e-16
outer loop
vertex -7.99999999999892 1040.0 -8.00000000000008
vertex -7.99999999999892 1040.0 1400.0
vertex -7.99999999999946 1040.0 2.83608057673389e-15
endloop
endfacet
facet normal -0.0 1.0 -0.0
outer loop
vertex -67.9999999999991 52.0 1400.0
vertex -7.9999999999989 52.0 -7.99999999999998
vertex -67.9999999999991 52.0 -7.99999999999998
endloop
endfacet
facet normal -0.0 1.0 -0.0
outer loop
vertex -7.9999999999989 52.0 -7.99999999999998
vertex -67.9999999999991 52.0 1400.0
vertex -7.99999999999942 52.0 9.74435764267256e-14
endloop
endfacet
facet normal -0.0 1.0 -0.0
outer loop
vertex -7.99999999999942 52.0 9.74435764267256e-14
vertex -67.9999999999991 52.0 1400.0
vertex -7.9999999999989 52.0 1400.0
endloop
endfacet
facet normal -1.0 -0.0 -0.0
outer loop
vertex -67.9999999999991 52.0 1400.0
vertex -67.9999999999991 -7.99999999999999 -7.99999999999998
vertex -67.9999999999991 -7.99999999999999 1400.0
endloop
endfacet
facet normal -1.0 -0.0 -0.0
outer loop
vertex -67.9999999999991 -7.99999999999999 -7.99999999999998
vertex -67.9999999999991 52.0 1400.0
vertex -67.9999999999991 52.0 -7.99999999999998
endloop
endfacet
facet normal -1.0 -1.21550279420169e-17 1.59802449510801e-16
outer loop
vertex -7.99999999999895 516.0 1400.0
vertex -7.99999999999942 52.0 9.74435764267256e-14
vertex -7.9999999999989 52.0 1400.0
endloop
endfacet
facet normal -1.0 -1.21550279420169e-17 1.59802449510801e-16
outer loop
vertex -7.99999999999942 52.0 9.74435764267256e-14
vertex -7.99999999999895 516.0 1400.0
vertex -7.9999999999989 52.0 -7.99999999999998
endloop
endfacet
facet normal -1.0 -1.21550279420169e-17 1.59802449510801e-16
outer loop
vertex -7.9999999999989 52.0 -7.99999999999998
vertex -7.99999999999895 516.0 1400.0
vertex -7.99999999999895 516.0 -7.99999999999998
endloop
endfacet
facet normal -1.0 -1.21550279420169e-17 1.59802449510801e-16
outer loop
vertex -7.99999999999895 516.0 -7.99999999999998
vertex -7.99999999999895 516.0 1400.0
vertex -7.99999999999934 516.0 9.23714418751922e-14
endloop
endfacet
facet normal -1.0 0.0 0.0
outer loop
vertex 1558.0 -7.99999999998206 15.1026215890026
vertex 1558.0 -487.56371464636 1400.00000000001
vertex 1558.0 -7.99999999999999 1400.0
endloop
endfacet
facet normal 1.0 -0.0 -0.0
outer loop
vertex -7.99999999999863 -7.99999999999999 1400.0
vertex -7.99999999999863 -495.563714646378 1400.0
vertex -7.99999999999863 -7.99999999999999 -8.00000000000008
endloop
endfacet
facet normal 4.14483601451338e-18 -0.944948912157531 -0.327217898979105
outer loop
vertex 1550.0 -495.563714646378 1400.0
vertex 1.02646779964743e-12 -7.99999999999999 -8.00000000000008
vertex 1550.0 -7.99999999999999 -8.00000000000008
endloop
endfacet
facet normal 4.14483601451338e-18 -0.944948912157531 -0.327217898979105
outer loop
vertex 1.02646779964743e-12 -7.99999999999999 -8.00000000000008
vertex 1550.0 -495.563714646378 1400.0
vertex -7.99999999999863 -7.99999999999999 -8.00000000000008
endloop
endfacet
facet normal 4.14483601451338e-18 -0.944948912157531 -0.327217898979105
outer loop
vertex -7.99999999999863 -7.99999999999999 -8.00000000000008
vertex 1550.0 -495.563714646378 1400.0
vertex -7.99999999999863 -495.563714646378 1400.0
endloop
endfacet
facet normal -8.63406496975223e-14 -1.0 -3.55273739992776e-15
outer loop
vertex 1618.0 -8.0 -8.00000000000008
vertex 1558.0 -7.99999999998206 15.1026215890026
vertex 1558.0 -7.99999999999999 -8.00000000000008
endloop
endfacet
facet normal -8.63406496975223e-14 -1.0 -3.55273739992776e-15
outer loop
vertex 1558.0 -7.99999999998206 15.1026215890026
vertex 1618.0 -8.0 -8.00000000000008
vertex 1618.0 -8.0 1400.0
endloop
endfacet
facet normal -8.63406496975223e-14 -1.0 -3.55273739992776e-15
outer loop
vertex 1558.0 -7.99999999998206 15.1026215890026
vertex 1618.0 -8.0 1400.0
vertex 1558.0 -7.99999999999999 1400.0
endloop
endfacet
facet normal -1.0 2.25597318603875e-14 -1.10402799171827e-26
outer loop
vertex 1550.0 0.0 0.0
vertex 1550.0 -7.99999999999846 0.0
vertex 1550.0 -7.99999999999107 15.1026215890026
endloop
endfacet
facet normal -5.03045633822254e-16 1.0 -9.37638855447167e-14
outer loop
vertex 5.02570271535981e-13 -8.00000000000002 0.0
vertex 1550.0 -7.99999999999999 -8.00000000000008
vertex 1.02646779964743e-12 -7.99999999999999 -8.00000000000008
endloop
endfacet
facet normal -5.03045633822254e-16 1.0 -9.37638855447167e-14
outer loop
vertex 1550.0 -7.99999999999999 -8.00000000000008
vertex 5.02570271535981e-13 -8.00000000000002 0.0
vertex 1550.0 -7.99999999999846 0.0
endloop
endfacet
facet normal 5.63376428841509e-13 -1.0 5.81231673061055e-13
outer loop
vertex 1558.0 -7.99999999998206 15.1026215890026
vertex 1550.0 -7.99999999999999 -8.00000000000008
vertex 1558.0 -7.99999999999999 -8.00000000000008
endloop
endfacet
facet normal 5.63376428841509e-13 -1.0 5.81231673061055e-13
outer loop
vertex 1550.0 -7.99999999999999 -8.00000000000008
vertex 1558.0 -7.99999999998206 15.1026215890026
vertex 1550.0 -7.99999999999846 0.0
endloop
endfacet
facet normal 5.63376428841509e-13 -1.0 5.81231673061055e-13
outer loop
vertex 1550.0 -7.99999999999846 0.0
vertex 1558.0 -7.99999999998206 15.1026215890026
vertex 1550.0 -7.99999999999107 15.1026215890026
endloop
endfacet
facet normal -1.0 2.25597318603854e-14 -2.15665825107714e-27
outer loop
vertex 1550.0 -7.99999999999846 0.0
vertex 1550.0 0.0 -8.0
vertex 1550.0 -7.99999999999999 -8.00000000000008
endloop
endfacet
facet normal -1.0 2.25597318603854e-14 -2.15665825107714e-27
outer loop
vertex 1550.0 0.0 -8.0
vertex 1550.0 -7.99999999999846 0.0
vertex 1550.0 0.0 0.0
endloop
endfacet
facet normal 1.0 9.55648794489632e-14 3.2743595506966e-14
outer loop
vertex 1.02646779964743e-12 -7.99999999999999 -8.00000000000008
vertex 0.0 0.0 0.0
vertex 5.02570271535981e-13 -8.00000000000002 0.0
endloop
endfacet
facet normal 1.0 9.55648794489632e-14 3.2743595506966e-14
outer loop
vertex 0.0 0.0 0.0
vertex 1.02646779964743e-12 -7.99999999999999 -8.00000000000008
vertex 0.0 0.0 -8.0
endloop
endfacet
facet normal 1.0 6.28212839419975e-14 -3.06111149718513e-14
outer loop
vertex 0.0 0.0 0.0
vertex 9.64878357373114e-13 -8.00000000000008 15.1026215889963
vertex 5.02570271535981e-13 -8.00000000000002 0.0
endloop
endfacet
facet normal -3.41520249301919e-15 1.0 -1.50589945909273e-13
outer loop
vertex 9.64878357373114e-13 -8.00000000000008 15.1026215889963
vertex 1550.0 -7.99999999999846 0.0
vertex 5.02570271535981e-13 -8.00000000000002 0.0
endloop
endfacet
facet normal -3.41520249301919e-15 1.0 -1.50589945909273e-13
outer loop
vertex 1550.0 -7.99999999999846 0.0
vertex 9.64878357373114e-13 -8.00000000000008 15.1026215889963
vertex 745.0 -7.99999999999871 15.1026215889983
endloop
endfacet
facet normal -3.41520249301919e-15 1.0 -1.50589945909273e-13
outer loop
vertex 1550.0 -7.99999999999846 0.0
vertex 745.0 -7.99999999999871 15.1026215889983
vertex 1550.0 -7.99999999999107 15.1026215890026
endloop
endfacet
facet normal -3.41520249301919e-15 1.0 -1.50589945909273e-13
outer loop
vertex 1550.0 -7.99999999999107 15.1026215890026
vertex 745.0 -7.99999999999871 15.1026215889983
vertex 805.0 -7.99999999999801 15.1026215889988
endloop
endfacet
facet normal 3.16567747116174e-18 7.92837327492187e-15 1.0
outer loop
vertex 5.02570271535981e-13 -8.00000000000002 0.0
vertex 745.0 0.0 0.0
vertex 0.0 0.0 0.0
endloop
endfacet
facet normal 3.16567747116174e-18 7.92837327492187e-15 1.0
outer loop
vertex 745.0 0.0 0.0
vertex 5.02570271535981e-13 -8.00000000000002 0.0
vertex 1550.0 -7.99999999999846 0.0
endloop
endfacet
facet normal 3.16567747116174e-18 7.92837327492187e-15 1.0
outer loop
vertex 745.0 0.0 0.0
vertex 1550.0 -7.99999999999846 0.0
vertex 805.0 2.34962639048122e-13 -2.53707944797462e-13
endloop
endfacet
facet normal 3.16567747116174e-18 7.92837327492187e-15 1.0
outer loop
vertex 805.0 2.34962639048122e-13 -2.53707944797462e-13
vertex 1550.0 -7.99999999999846 0.0
vertex 1550.0 0.0 0.0
endloop
endfacet
facet normal -1.45243873779481e-15 0.883679147600463 0.46809311477111
outer loop
vertex 9.64878357373114e-13 -8.00000000000008 15.1026215889963
vertex 745.0 0.0 0.0
vertex 0.0 0.0 0.0
endloop
endfacet
facet normal -1.45243873779481e-15 0.883679147600463 0.46809311477111
outer loop
vertex 745.0 0.0 0.0
vertex 9.64878357373114e-13 -8.00000000000008 15.1026215889963
vertex 745.0 -7.99999999999871 15.1026215889983
endloop
endfacet
facet normal -5.33966193773948e-15 0.883679147600579 0.468093114770891
outer loop
vertex 805.0 -7.99999999999801 15.1026215889988
vertex 1550.0 0.0 0.0
vertex 805.0 2.34962639048122e-13 -2.53707944797462e-13
endloop
endfacet
facet normal -5.33966193773948e-15 0.883679147600579 0.468093114770891
outer loop
vertex 1550.0 0.0 0.0
vertex 805.0 -7.99999999999801 15.1026215889988
vertex 1550.0 -7.99999999999107 15.1026215890026
endloop
endfacet
facet normal 6.32661846467212e-18 1.22519922586982e-29 1.0
outer loop
vertex 745.0 0.0 0.0
vertex 9.02389274415327e-14 60.0 0.0
vertex 0.0 0.0 0.0
endloop
endfacet
facet normal 6.32661846467212e-18 1.22519922586982e-29 1.0
outer loop
vertex 9.02389274415327e-14 60.0 0.0
vertex 745.0 0.0 0.0
vertex 1550.0 60.0 0.0
endloop
endfacet
facet normal 6.32661846467212e-18 1.22519922586982e-29 1.0
outer loop
vertex 1550.0 60.0 0.0
vertex 745.0 0.0 0.0
vertex 805.0 2.34962639048122e-13 -2.53707944797462e-13
endloop
endfacet
facet normal 6.32661846467212e-18 1.22519922586982e-29 1.0
outer loop
vertex 1550.0 60.0 0.0
vertex 805.0 2.34962639048122e-13 -2.53707944797462e-13
vertex 1550.0 0.0 0.0
endloop
endfacet
facet normal -7.73452343628748e-15 0.883679147600503 0.468093114771035
outer loop
vertex 745.0 0.0 0.0
vertex 805.0 -7.99999999999801 15.1026215889988
vertex 805.0 2.34962639048122e-13 -2.53707944797462e-13
endloop
endfacet
facet normal -7.73452343628748e-15 0.883679147600503 0.468093114771035
outer loop
vertex 805.0 -7.99999999999801 15.1026215889988
vertex 745.0 0.0 0.0
vertex 745.0 -7.99999999999871 15.1026215889983
endloop
endfacet
facet normal 1.0 1.11538928547647e-16 -6.54403761263915e-16
outer loop
vertex -9.02389274415327e-14 520.0 0.0
vertex 9.02389274415327e-14 60.0 60.0
vertex 9.02389274415327e-14 60.0 0.0
endloop
endfacet
facet normal 1.0 1.11538928547647e-16 -6.54403761263915e-16
outer loop
vertex 9.02389274415327e-14 1040.0 0.0
vertex -9.02389274415327e-14 580.0 60.0
vertex -9.02389274415327e-14 580.0 0.0
endloop
endfacet
facet normal 1.0 1.11538928547647e-16 -6.54403761263915e-16
outer loop
vertex 9.62852506181648e-13 -23.5471112187167 60.0000000000001
vertex 1.08286712929839e-12 1100.0 1400.0
vertex 9.02389274415327e-13 -487.563714646378 1400.0
endloop
endfacet
facet normal 1.0 1.11538928547647e-16 -6.54403761263915e-16
outer loop
vertex 1.08286712929839e-12 1100.0 1400.0
vertex 9.62852506181648e-13 -23.5471112187167 60.0000000000001
vertex 9.02389274415327e-14 0.0 60.0
endloop
endfacet
facet normal 1.0 1.11538928547647e-16 -6.54403761263915e-16
outer loop
vertex 1.08286712929839e-12 1100.0 1400.0
vertex 9.02389274415327e-14 0.0 60.0
vertex 9.02389274415327e-14 60.0 60.0
endloop
endfacet
facet normal 1.0 1.11538928547647e-16 -6.54403761263915e-16
outer loop
vertex 1.08286712929839e-12 1100.0 1400.0
vertex 9.02389274415327e-14 60.0 60.0
vertex -9.02389274415327e-14 520.0 60.0
endloop
endfacet
facet normal 1.0 1.11538928547647e-16 -6.54403761263915e-16
outer loop
vertex -9.02389274415327e-14 520.0 60.0
vertex 9.02389274415327e-14 60.0 60.0
vertex -9.02389274415327e-14 520.0 0.0
endloop
endfacet
facet normal 1.0 1.11538928547647e-16 -6.54403761263915e-16
outer loop
vertex 1.08286712929839e-12 1100.0 1400.0
vertex -9.02389274415327e-14 520.0 60.0
vertex -9.02389274415327e-14 580.0 60.0
endloop
endfacet
facet normal 1.0 1.11538928547647e-16 -6.54403761263915e-16
outer loop
vertex 1.08286712929839e-12 1100.0 1400.0
vertex -9.02389274415327e-14 580.0 60.0
vertex 9.02389274415327e-14 1040.0 60.0
endloop
endfacet
facet normal 1.0 1.11538928547647e-16 -6.54403761263915e-16
outer loop
vertex 9.02389274415327e-14 1040.0 60.0
vertex -9.02389274415327e-14 580.0 60.0
vertex 9.02389274415327e-14 1040.0 0.0
endloop
endfacet
facet normal 1.0 1.11538928547647e-16 -6.54403761263915e-16
outer loop
vertex 1.08286712929839e-12 1100.0 1400.0
vertex 9.02389274415327e-14 1040.0 60.0
vertex 9.02389274415327e-14 1100.0 60.0
endloop
endfacet
facet normal 1.0 -7.51991062012773e-16 -7.51991062012773e-16
outer loop
vertex 9.02389274415327e-14 60.0 0.0
vertex 9.02389274415327e-14 0.0 60.0
vertex 0.0 0.0 0.0
endloop
endfacet
facet normal 1.0 -7.51991062012773e-16 -7.51991062012773e-16
outer loop
vertex 9.02389274415327e-14 0.0 60.0
vertex 9.02389274415327e-14 60.0 0.0
vertex 9.02389274415327e-14 60.0 60.0
endloop
endfacet
facet normal -2.07241800725669e-18 -0.944948912157531 -0.327217898979105
outer loop
vertex 1558.0 -495.563714646378 1400.0
vertex 1550.0 -7.99999999999999 -8.00000000000008
vertex 1558.0 -7.99999999999999 -8.00000000000008
endloop
endfacet
facet normal -2.07241800725669e-18 -0.944948912157531 -0.327217898979105
outer loop
vertex 1550.0 -7.99999999999999 -8.00000000000008
vertex 1558.0 -495.563714646378 1400.0
vertex 1550.0 -495.563714646378 1400.0
endloop
endfacet
facet normal -1.0 0.0 0.0
outer loop
vertex 1558.0 -487.56371464636 1400.00000000001
vertex 1558.0 -7.99999999999999 -8.00000000000008
vertex 1558.0 -495.563714646378 1400.0
endloop
endfacet
facet normal -1.0 0.0 0.0
outer loop
vertex 1558.0 -7.99999999999999 -8.00000000000008
vertex 1558.0 -487.56371464636 1400.00000000001
vertex 1558.0 -7.99999999998206 15.1026215890026
endloop
endfacet
facet normal 4.40541430495804e-14 2.21689965243067e-14 1.0
outer loop
vertex 745.0 -23.5471112187167 60.0000000000057
vertex 805.0 60.0 60.0
vertex 745.0 60.0 60.0
endloop
endfacet
facet normal 4.40541430495804e-14 2.21689965243067e-14 1.0
outer loop
vertex 805.0 60.0 60.0
vertex 745.0 -23.5471112187167 60.0000000000057
vertex 805.0 -23.5471112187084 59.9999999999978
endloop
endfacet
facet normal -5.09544078440837e-14 0.944948912157545 0.327217898979062
outer loop
vertex 745.0 -23.5471112187167 60.0000000000057
vertex 805.0 -7.99999999999801 15.1026215889988
vertex 745.0 -7.99999999999871 15.1026215889983
endloop
endfacet
facet normal -5.09544078440837e-14 0.944948912157545 0.327217898979062
outer loop
vertex 805.0 -7.99999999999801 15.1026215889988
vertex 745.0 -23.5471112187167 60.0000000000057
vertex 805.0 -23.5471112187084 59.9999999999978
endloop
endfacet
facet normal -8.56146537271787e-16 -1.18422166252033e-14 1.0
outer loop
vertex 805.0 -23.5471112187084 59.9999999999978
vertex 1550.0 60.0 60.0
vertex 805.0 60.0 60.0
endloop
endfacet
facet normal -8.56146537271787e-16 -1.18422166252033e-14 1.0
outer loop
vertex 1550.0 60.0 60.0
vertex 805.0 -23.5471112187084 59.9999999999978
vertex 1550.0 -23.5471112187017 60.0
endloop
endfacet
facet normal -8.56146537271787e-16 -1.18422166252033e-14 1.0
outer loop
vertex 1550.0 60.0 60.0
vertex 1550.0 -23.5471112187017 60.0
vertex 1550.0 0.0 60.0
endloop
endfacet
facet normal -2.164488840448e-15 3.05007900681924e-14 1.0
outer loop
vertex 9.62852506181648e-13 -23.5471112187167 60.0000000000001
vertex 9.02389274415327e-14 60.0 60.0
vertex 9.02389274415327e-14 0.0 60.0
endloop
endfacet
facet normal -2.164488840448e-15 3.05007900681924e-14 1.0
outer loop
vertex 9.02389274415327e-14 60.0 60.0
vertex 9.62852506181648e-13 -23.5471112187167 60.0000000000001
vertex 745.0 60.0 60.0
endloop
endfacet
facet normal -2.164488840448e-15 3.05007900681924e-14 1.0
outer loop
vertex 745.0 60.0 60.0
vertex 9.62852506181648e-13 -23.5471112187167 60.0000000000001
vertex 745.0 -23.5471112187167 60.0000000000057
endloop
endfacet
facet normal -2.54328086024903e-15 0.944948912157531 0.327217898979105
outer loop
vertex 9.62852506181648e-13 -23.5471112187167 60.0000000000001
vertex 745.0 -7.99999999999871 15.1026215889983
vertex 9.64878357373114e-13 -8.00000000000008 15.1026215889963
endloop
endfacet
facet normal -2.54328086024903e-15 0.944948912157531 0.327217898979105
outer loop
vertex 745.0 -7.99999999999871 15.1026215889983
vertex 9.62852506181648e-13 -23.5471112187167 60.0000000000001
vertex 745.0 -23.5471112187167 60.0000000000057
endloop
endfacet
facet normal -1.25400747089064e-15 0.94494891215753 0.327217898979105
outer loop
vertex 9.02389274415327e-13 -487.563714646378 1400.0
vertex 745.0 -23.5471112187167 60.0000000000057
vertex 9.62852506181648e-13 -23.5471112187167 60.0000000000001
endloop
endfacet
facet normal -1.25400747089064e-15 0.94494891215753 0.327217898979105
outer loop
vertex 745.0 -23.5471112187167 60.0000000000057
vertex 9.02389274415327e-13 -487.563714646378 1400.0
vertex 745.0 -487.563714646378 1400.0
endloop
endfacet
facet normal 1.0 4.32038528323527e-15 1.49606754076546e-15
outer loop
vertex 805.0 -23.5471112187084 59.9999999999978
vertex 805.0 -404.016603427669 1400.0
vertex 805.0 -487.563714646378 1400.0
endloop
endfacet
facet normal 1.0 4.32038528323527e-15 1.49606754076546e-15
outer loop
vertex 805.0 -404.016603427669 1400.0
vertex 805.0 -23.5471112187084 59.9999999999978
vertex 805.0 60.0 60.0
endloop
endfacet
facet normal -0.0 0.944948912157529 0.32721789897911
outer loop
vertex 745.0 -404.016603427669 1400.0
vertex 805.0 60.0 60.0
vertex 745.0 60.0 60.0
endloop
endfacet
facet normal -0.0 0.944948912157529 0.32721789897911
outer loop
vertex 805.0 60.0 60.0
vertex 745.0 -404.016603427669 1400.0
vertex 805.0 -404.016603427669 1400.0
endloop
endfacet
facet normal -1.0 -3.78033712283071e-15 -1.27538785658706e-15
outer loop
vertex 745.0 -404.016603427669 1400.0
vertex 745.0 -23.5471112187167 60.0000000000057
vertex 745.0 -487.563714646378 1400.0
endloop
endfacet
facet normal -1.0 -3.78033712283071e-15 -1.27538785658706e-15
outer loop
vertex 745.0 -23.5471112187167 60.0000000000057
vertex 745.0 -404.016603427669 1400.0
vertex 745.0 60.0 60.0
endloop
endfacet
facet normal -4.61461745004786e-34 1.0 9.39988827515966e-17
outer loop
vertex 9.02389274415327e-14 60.0 60.0
vertex 1550.0 60.0 0.0
vertex 9.02389274415327e-14 60.0 0.0
endloop
endfacet
facet normal -4.61461745004786e-34 1.0 9.39988827515966e-17
outer loop
vertex 1550.0 60.0 0.0
vertex 9.02389274415327e-14 60.0 60.0
vertex 1550.0 60.0 60.0
endloop
endfacet
facet normal -4.61461745004786e-34 1.0 9.39988827515966e-17
outer loop
vertex 1550.0 60.0 60.0
vertex 9.02389274415327e-14 60.0 60.0
vertex 745.0 60.0 60.0
endloop
endfacet
facet normal -4.61461745004786e-34 1.0 9.39988827515966e-17
outer loop
vertex 1550.0 60.0 60.0
vertex 745.0 60.0 60.0
vertex 805.0 60.0 60.0
endloop
endfacet
facet normal -1.0 0.0 0.0
outer loop
vertex 1550.0 1100.0 1400.0
vertex 1550.0 -23.5471112187017 60.0
vertex 1550.0 -487.563714646378 1400.0
endloop
endfacet
facet normal -1.0 0.0 0.0
outer loop
vertex 1550.0 -23.5471112187017 60.0
vertex 1550.0 1100.0 1400.0
vertex 1550.0 0.0 60.0
endloop
endfacet
facet normal -1.0 0.0 0.0
outer loop
vertex 1550.0 0.0 60.0
vertex 1550.0 1100.0 1400.0
vertex 1550.0 60.0 60.0
endloop
endfacet
facet normal -1.0 0.0 0.0
outer loop
vertex 1550.0 60.0 60.0
vertex 1550.0 1100.0 1400.0
vertex 1550.0 60.0 0.0
endloop
endfacet
facet normal -1.0 0.0 0.0
outer loop
vertex 1550.0 60.0 0.0
vertex 1550.0 1100.0 1400.0
vertex 1550.0 520.0 60.0
endloop
endfacet
facet normal -1.0 0.0 0.0
outer loop
vertex 1550.0 520.0 60.0
vertex 1550.0 1100.0 1400.0
vertex 1550.0 580.0 60.0
endloop
endfacet
facet normal -1.0 0.0 0.0
outer loop
vertex 1550.0 580.0 60.0
vertex 1550.0 1100.0 1400.0
vertex 1550.0 580.0 0.0
endloop
endfacet
facet normal -1.0 0.0 0.0
outer loop
vertex 1550.0 580.0 0.0
vertex 1550.0 1100.0 1400.0
vertex 1550.0 1040.0 60.0
endloop
endfacet
facet normal -1.0 0.0 0.0
outer loop
vertex 1550.0 1040.0 60.0
vertex 1550.0 1100.0 1400.0
vertex 1550.0 1100.0 60.0
endloop
endfacet
facet normal -1.0 0.0 0.0
outer loop
vertex 1550.0 1040.0 0.0
vertex 1550.0 580.0 0.0
vertex 1550.0 1040.0 60.0
endloop
endfacet
facet normal -1.0 0.0 0.0
outer loop
vertex 1550.0 520.0 0.0
vertex 1550.0 60.0 0.0
vertex 1550.0 520.0 60.0
endloop
endfacet
facet normal -4.77422691685857e-15 0.944948912157528 0.327217898979112
outer loop
vertex 805.0 -487.563714646378 1400.0
vertex 1550.0 -23.5471112187017 60.0
vertex 805.0 -23.5471112187084 59.9999999999978
endloop
endfacet
facet normal -4.77422691685857e-15 0.944948912157528 0.327217898979112
outer loop
vertex 1550.0 -23.5471112187017 60.0
vertex 805.0 -487.563714646378 1400.0
vertex 1550.0 -487.563714646378 1400.0
endloop
endfacet
facet normal -1.75855369105302e-16 8.18098520274049e-16 1.0
outer loop
vertex -7.99999999999895 516.0 1400.0
vertex -67.999999999999 576.0 1400.0
vertex -67.999999999999 516.0 1400.0
endloop
endfacet
facet normal -1.75855369105302e-16 8.18098520274049e-16 1.0
outer loop
vertex -67.999999999999 576.0 1400.0
vertex -7.99999999999895 516.0 1400.0
vertex -7.99999999999895 576.0 1400.0
endloop
endfacet
facet normal -1.75855369105302e-16 8.18098520274049e-16 1.0
outer loop
vertex -7.99999999999895 576.0 1400.0
vertex -7.99999999999895 516.0 1400.0
vertex -7.9999999999989 52.0 1400.0
endloop
endfacet
facet normal -1.75855369105302e-16 8.18098520274049e-16 1.0
outer loop
vertex -7.99999999999895 576.0 1400.0
vertex -7.9999999999989 52.0 1400.0
vertex -7.99999999999892 1040.0 1400.0
endloop
endfacet
facet normal -1.75855369105302e-16 8.18098520274049e-16 1.0
outer loop
vertex -7.99999999999863 -7.99999999999999 1400.0
vertex -67.9999999999991 52.0 1400.0
vertex -67.9999999999991 -7.99999999999999 1400.0
endloop
endfacet
facet normal -1.75855369105302e-16 8.18098520274049e-16 1.0
outer loop
vertex -67.9999999999991 52.0 1400.0
vertex -7.99999999999863 -7.99999999999999 1400.0
vertex -7.9999999999989 52.0 1400.0
endloop
endfacet
facet normal -1.75855369105302e-16 8.18098520274049e-16 1.0
outer loop
vertex 1618.0 -8.0 1400.0
vertex 1558.0 52.0 1400.0
vertex 1558.0 -7.99999999999999 1400.0
endloop
endfacet
facet normal -1.75855369105302e-16 8.18098520274049e-16 1.0
outer loop
vertex 1558.0 52.0 1400.0
vertex 1618.0 -8.0 1400.0
vertex 1618.0 52.0 1400.0
endloop
endfacet
facet normal -1.75855369105302e-16 8.18098520274049e-16 1.0
outer loop
vertex 1618.0 516.0 1400.0
vertex 1558.0 576.0 1400.0
vertex 1558.0 516.0 1400.0
endloop
endfacet
facet normal -1.75855369105302e-16 8.18098520274049e-16 1.0
outer loop
vertex 1558.0 576.0 1400.0
vertex 1618.0 516.0 1400.0
vertex 1618.0 576.0 1400.0
endloop
endfacet
facet normal -1.75855369105302e-16 8.18098520274049e-16 1.0
outer loop
vertex -7.99999999999863 -495.563714646378 1400.0
vertex 9.02389274415327e-13 -487.563714646378 1400.0
vertex -7.99999999999863 -7.99999999999999 1400.0
endloop
endfacet
facet normal -1.75855369105302e-16 8.18098520274049e-16 1.0
outer loop
vertex 9.02389274415327e-13 -487.563714646378 1400.0
vertex -7.99999999999863 -495.563714646378 1400.0
vertex 1550.0 -495.563714646378 1400.0
endloop
endfacet
facet normal -1.75855369105302e-16 8.18098520274049e-16 1.0
outer loop
vertex 9.02389274415327e-13 -487.563714646378 1400.0
vertex 1550.0 -495.563714646378 1400.0
vertex 745.0 -487.563714646378 1400.0
endloop
endfacet
facet normal -1.75855369105302e-16 8.18098520274049e-16 1.0
outer loop
vertex 745.0 -487.563714646378 1400.0
vertex 1550.0 -495.563714646378 1400.0
vertex 805.0 -487.563714646378 1400.0
endloop
endfacet
facet normal -1.75855369105302e-16 8.18098520274049e-16 1.0
outer loop
vertex 745.0 -487.563714646378 1400.0
vertex 805.0 -487.563714646378 1400.0
vertex 805.0 -404.016603427669 1400.0
endloop
endfacet
facet normal -1.75855369105302e-16 8.18098520274049e-16 1.0
outer loop
vertex 805.0 -487.563714646378 1400.0
vertex 1550.0 -495.563714646378 1400.0
vertex 1550.0 -487.563714646378 1400.0
endloop
endfacet
facet normal -1.75855369105302e-16 8.18098520274049e-16 1.0
outer loop
vertex 1550.0 -487.563714646378 1400.0
vertex 1550.0 -495.563714646378 1400.0
vertex 1558.0 -495.563714646378 1400.0
endloop
endfacet
facet normal -1.75855369105302e-16 8.18098520274049e-16 1.0
outer loop
vertex 1550.0 -487.563714646378 1400.0
vertex 1558.0 -495.563714646378 1400.0
vertex 1550.0 1100.0 1400.0
endloop
endfacet
facet normal -1.75855369105302e-16 8.18098520274049e-16 1.0
outer loop
vertex 1550.0 1100.0 1400.0
vertex 1558.0 -495.563714646378 1400.0
vertex 1558.0 1040.0 1400.0
endloop
endfacet
facet normal -1.75855369105302e-16 8.18098520274049e-16 1.0
outer loop
vertex 1550.0 1100.0 1400.0
vertex 1558.0 1040.0 1400.0
vertex 1618.0 1100.0 1400.0
endloop
endfacet
facet normal -1.75855369105302e-16 8.18098520274049e-16 1.0
outer loop
vertex 1558.0 1040.0 1400.0
vertex 1558.0 -495.563714646378 1400.0
vertex 1558.0 -487.56371464636 1400.00000000001
endloop
endfacet
facet normal -1.75855369105302e-16 8.18098520274049e-16 1.0
outer loop
vertex 1558.0 1040.0 1400.0
vertex 1558.0 -487.56371464636 1400.00000000001
vertex 1558.0 -7.99999999999999 1400.0
endloop
endfacet
facet normal -1.75855369105302e-16 8.18098520274049e-16 1.0
outer loop
vertex 1558.0 1040.0 1400.0
vertex 1558.0 -7.99999999999999 1400.0
vertex 1558.0 52.0 1400.0
endloop
endfacet
facet normal -1.75855369105302e-16 8.18098520274049e-16 1.0
outer loop
vertex 1558.0 1040.0 1400.0
vertex 1558.0 52.0 1400.0
vertex 1558.0 516.0 1400.0
endloop
endfacet
facet normal -1.75855369105302e-16 8.18098520274049e-16 1.0
outer loop
vertex 1558.0 1040.0 1400.0
vertex 1558.0 516.0 1400.0
vertex 1558.0 576.0 1400.0
endloop
endfacet
facet normal -1.75855369105302e-16 8.18098520274049e-16 1.0
outer loop
vertex 1618.0 1100.0 1400.0
vertex 1558.0 1040.0 1400.0
vertex 1618.0 1040.0 1400.0
endloop
endfacet
facet normal -1.75855369105302e-16 8.18098520274049e-16 1.0
outer loop
vertex 805.0 -404.016603427669 1400.0
vertex 745.0 -404.016603427669 1400.0
vertex 745.0 -487.563714646378 1400.0
endloop
endfacet
facet normal -1.75855369105302e-16 8.18098520274049e-16 1.0
outer loop
vertex -7.99999999999892 1040.0 1400.0
vertex -67.9999999999988 1100.0 1400.0
vertex -67.9999999999988 1040.0 1400.0
endloop
endfacet
facet normal -1.75855369105302e-16 8.18098520274049e-16 1.0
outer loop
vertex -67.9999999999988 1100.0 1400.0
vertex -7.99999999999892 1040.0 1400.0
vertex 1.08286712929839e-12 1100.0 1400.0
endloop
endfacet
facet normal -1.75855369105302e-16 8.18098520274049e-16 1.0
outer loop
vertex 1.08286712929839e-12 1100.0 1400.0
vertex -7.99999999999892 1040.0 1400.0
vertex -7.9999999999989 52.0 1400.0
endloop
endfacet
facet normal -1.75855369105302e-16 8.18098520274049e-16 1.0
outer loop
vertex 1.08286712929839e-12 1100.0 1400.0
vertex -7.9999999999989 52.0 1400.0
vertex -7.99999999999863 -7.99999999999999 1400.0
endloop
endfacet
facet normal -1.75855369105302e-16 8.18098520274049e-16 1.0
outer loop
vertex 1.08286712929839e-12 1100.0 1400.0
vertex -7.99999999999863 -7.99999999999999 1400.0
vertex 9.02389274415327e-13 -487.563714646378 1400.0
endloop
endfacet
endsolid sucker2000load_part2
